<?xml version="1.0" encoding="UTF-8"?>
<svg viewBox="0 0 331.2 263.52" xmlns="http://www.w3.org/2000/svg">
<defs>
<style>.cls-1{isolation:isolate;}.cls-2{fill:#a063f7;}.cls-2,.cls-4,.cls-6{opacity:0.6;}.cls-24,.cls-3{fill:#fff;}.cls-3{opacity:0.5;mix-blend-mode:screen;}.cls-4{fill:#149fed;}.cls-5{fill:#f7898e;}.cls-6{fill:#145def;}.cls-7{fill:#13771a;}.cls-8{fill:#31bc31;}.cls-9{fill:#057f0b;}.cls-10{fill:#218e3d;}.cls-11{fill:#197f11;}.cls-12{fill:#26a010;}.cls-13{fill:#02ce5a;}.cls-14{fill:#ffac00;}.cls-15{fill:#fa8a00;}.cls-16{fill:#fda893;}.cls-17{fill:#0172d0;}.cls-18{fill:#001f37;}.cls-19{fill:#043c62;}.cls-20{fill:#005982;}.cls-21{fill:#fd896b;}.cls-22{fill:#0056c5;}.cls-23{fill:#1c47c1;}.cls-25{fill:#ededed;}.cls-26{fill:#20363c;}.cls-27{fill:#ed1140;}.cls-28{fill:#04842f;}.cls-29{fill:#a01fb2;}</style>
</defs>
<title>about-me-section-two</title>
<g class="cls-1">
<g data-name="Layer 1">
<path class="cls-2" transform="translate(-.18 -.46)" d="m315.48 164.22a95.83 95.83 0 0 1 -94.34 77.89h-64.84a96 96 0 0 1 -69.56 -29.85c-0.79-0.81-1.55-1.65-2.31-2.5a97.41 97.41 0 0 1 -21.24 -39.48 95.09 95.09 0 0 1 -2.73 -14.86v-0.36a168.85 168.85 0 0 1 -0.72 -26.29c1-18.52 5.71-34.61 14.73-46.61 10.49-14 26.88-22.37 50.34-22.63h3c64.63 1 62.48 30.51 115.42 43.46 12.1 3 27.08 5.06 46.39 5.75l1.28 0.07c27.03 1.75 29.95 27.19 24.58 55.41z"/>
<path class="cls-3" transform="translate(-.18 -.46)" d="M290.81,108.82c-18.31,9.58-46.93,19.83-81.39,16.09-52.31-5.67-118.15-16.65-149.72,3.87,1-18.52,5.71-34.61,14.73-46.61,11-2.57,25.1-2.67,42.84,1.92C155.72,94,205.64,104.9,243.14,103c12.1,3,27.08,5.06,46.39,5.75Z"/>
<path class="cls-3" transform="translate(-.18 -.46)" d="M315.48,164.23a95.28,95.28,0,0,1-13,33c-13.24,4-30.86,5.46-53.68.46-55.75-12.2-116.89-12-162.07,14.54-.79-.81-1.55-1.65-2.31-2.5a97.41,97.41,0,0,1-21.24-39.48c15.79-7.49,55.33-22,106.3-10.39C223.24,172.19,284.86,182,315.48,164.23Z"/>
<path class="cls-4" transform="translate(-.18 -.46)" d="M.18,26.33a4.61,4.61,0,0,0,4.58,4.59h97.95a4.59,4.59,0,0,0,3.23-7.83,4.52,4.52,0,0,0-3.23-1.35H98.08A11.92,11.92,0,0,0,78.65,18a16.59,16.59,0,0,0-19.11-7.48,18.95,18.95,0,0,0-35,3.83A11.94,11.94,0,0,0,7.71,21.74H4.76A4.59,4.59,0,0,0,.18,26.33Z"/>
<path class="cls-4" transform="translate(-.18 -.46)" d="M208.4,47.69a3,3,0,0,1-3,3H141.92a3,3,0,0,1-2.09-5.07,2.94,2.94,0,0,1,2.09-.88h3a7.73,7.73,0,0,1,12.6-2.4,10.77,10.77,0,0,1,12.4-4.85,12.28,12.28,0,0,1,22.7,2.48,7.74,7.74,0,0,1,10.9,4.77h1.91A3,3,0,0,1,208.4,47.69Z"/>
<path class="cls-5" transform="translate(-.18 -.46)" d="M280.85,81.38l.81-4.12-3.87-.76a9.21,9.21,0,0,0-.51-3l3.18-2.14-2.34-3.49-3,2a9.33,9.33,0,0,0-3.13-2.1l.76-3.87-4.12-.81-.78,4a8.73,8.73,0,0,0-2.51.49l-2.13-3.19-3.49,2.34,2.05,3.05a9.61,9.61,0,0,0-2.11,3.13l-3.37-.66-.81,4.13,3.49.68a9.17,9.17,0,0,0,.75,3.19l-3.05,2L259,85.8l3.18-2.14a9.62,9.62,0,0,0,3.07,1.79l-.76,3.89,4.12.81.83-4.22a9,9,0,0,0,2.66-.71l2.05,3,3.48-2.34-2.13-3.19a9.4,9.4,0,0,0,1.4-2.14ZM270.5,79.73a3.85,3.85,0,1,1,1.05-5.35A3.84,3.84,0,0,1,270.5,79.73Z"/>
<path class="cls-5" transform="translate(-.18 -.46)" d="M62.38,86.36l.81-4.13-3.86-.76a9.77,9.77,0,0,0-.51-3L62,76.31l-2.34-3.49-3,2a9.39,9.39,0,0,0-3.12-2.1l.75-3.87-4.12-.81-.78,4a9.08,9.08,0,0,0-2.5.49L44.7,69.37l-3.49,2.34,2,3.05a9.37,9.37,0,0,0-2.1,3.14l-3.38-.67L37,81.36l3.5.69a9.39,9.39,0,0,0,.74,3.18l-3.05,2,2.34,3.49,3.19-2.14a9.41,9.41,0,0,0,3.07,1.79L46,94.31l4.12.81.83-4.22a9.11,9.11,0,0,0,2.67-.71l2,3,3.49-2.34L57,87.71a9.07,9.07,0,0,0,1.4-2.14ZM52,84.7a3.85,3.85,0,1,1,1-5.35A3.84,3.84,0,0,1,52,84.7Z"/>
<path class="cls-5" transform="translate(-.18 -.46)" d="M303,86.29l.44-2.26-2.1-.41a5.44,5.44,0,0,0-.28-1.65l1.73-1.17-1.28-1.91L299.84,80a5,5,0,0,0-1.71-1.15l.42-2.12-2.25-.44-.43,2.18a4.69,4.69,0,0,0-1.37.27L293.33,77l-1.9,1.29L292.54,80a5.26,5.26,0,0,0-1.15,1.71l-1.84-.36-.44,2.26,1.91.37a5.07,5.07,0,0,0,.4,1.74l-1.66,1.12L291,88.7l1.74-1.17a5.24,5.24,0,0,0,1.67,1L294,90.63l2.25.45.45-2.31a5,5,0,0,0,1.46-.38l1.12,1.66,1.9-1.28L300.05,87a5.26,5.26,0,0,0,.77-1.17Zm-5.65-.91a2.1,2.1,0,1,1,.57-2.92A2.11,2.11,0,0,1,297.34,85.38Z"/>
<path class="cls-4" transform="translate(-.18 -.46)" d="M229.11,33.9A4.36,4.36,0,0,0,230.4,37a4.3,4.3,0,0,0,3.08,1.29H327a4.39,4.39,0,0,0,4.37-4.39A4.4,4.4,0,0,0,327,29.52h-4.42A11.4,11.4,0,0,0,304,26a15.82,15.82,0,0,0-18.24-7.14,18.09,18.09,0,0,0-33.44,3.66,11.39,11.39,0,0,0-16,7h-2.82A4.39,4.39,0,0,0,229.11,33.9Z"/>
<path class="cls-6" transform="translate(-.18 -.46)" d="m331.16 255.2c0 4.85-69 8.78-154.16 8.78s-154.17-3.93-154.17-8.78 69-8.78 154.17-8.78 154.16 3.93 154.16 8.78z"/>
<path class="cls-7" transform="translate(-.18 -.46)" d="M74.82,255.07H77.5l-9.9-25.71a32.4,32.4,0,0,1,3.72-9.44c4.09-7.14,7.17-15.48,1.94-14.9-4.54.5-7.75,10.12-7.53,19.49l-3.55-9.24A46.83,46.83,0,0,1,61,203c.66-11.35-.81-22.22-6.3-19.26s-2.62,21.63,5.63,33.63l1.83,4.75c-5.86-8.85-17-16-21.34-12.94s3.61,7.19,11.44,9.75a29.49,29.49,0,0,1,11,6.1l8.64,22.45c-9.31-14-27-25.33-33.78-20.43s5.73,11.42,18.14,15.48c9.38,3.07,14.86,7.22,17.45,9.62Z"/>
<path class="cls-8" transform="translate(-.18 -.46)" d="M277.36,255.07a11.83,11.83,0,0,0-.77-7.38c-2.85-6.29.8-8.37,5.52-11.56s4-9.52-.75-13.87.92-9.91-3.16-17.13-11.39-.26-11.7,7.27c-.22,5.41-7.18,5.74-8.24,12.93-.93,6.24,7.47,10-.34,14.47a7.73,7.73,0,0,0-3.79,6.35,12.32,12.32,0,0,0,2.66,8.92Z"/>
<path class="cls-9" transform="translate(-.18 -.46)" d="M266.5,255.07l7-40.15a.64.64,0,1,0-1.27-.22l-7.08,40.37Z"/>
<path class="cls-10" transform="translate(-.18 -.46)" d="M297.05,255.07a16,16,0,0,0,.07-1.7c-.15-8.79,5.18-9.37,12.31-10.71s9.51-9.07,6.15-16.58,6.11-11.1,5-21.6-13.16-6.09-17.34,2.55c-3,6.21-11.31,3.07-16.2,10.93-4.24,6.82,3.65,15.49-7.72,16.72-3.63.39-6.05,2.63-7.65,5.5a15.78,15.78,0,0,0-.22,14.89Z"/>
<path class="cls-11" transform="translate(-.18 -.46)" d="M282.78,255.07l27.39-41.52a.82.82,0,1,0-1.37-.91l-28,42.43Z"/>
<path class="cls-12" transform="translate(-.18 -.46)" d="M99.4,242.36c-2.47-19.54-6.2-39.81-10.25-52.94-5.3-17.15-11.92-28.51-19.68-33.78a1.14,1.14,0,0,0-1.57.3,1.12,1.12,0,0,0,.3,1.56c13.58,9.21,23.64,39.07,29.14,86.43Z"/>
<path class="cls-13" transform="translate(-.18 -.46)" d="m83.15 174.53s9.24-1.82 5.41-17.94c0 0-13.35 6.8-5.41 17.94z"/>
<path class="cls-13" transform="translate(-.18 -.46)" d="m85.56 182.73s-1.3-9.32-17.61-6.39c0.05 0 6.05 13.66 17.61 6.39z"/>
<path class="cls-13" transform="translate(-.18 -.46)" d="m74.05 161.33s1.88-9.23-14.47-11.9c0 0 1.13 14.93 14.47 11.9z"/>
<path class="cls-13" transform="translate(-.18 -.46)" d="m90.91 199.09s9.3 1.42 11.15-15c0-0.04-14.86 1.83-11.15 15z"/>
<path class="cls-13" transform="translate(-.18 -.46)" d="m92.09 207.82s0.33-9.41-16.23-9.34c0 0 3.57 14.52 16.23 9.34z"/>
<path class="cls-13" transform="translate(-.18 -.46)" d="m94.9 219.62s9.28 1.59 11.43-14.84c0 0-14.89 1.6-11.43 14.84z"/>
<polygon class="cls-14" points="315.03 160.16 315 160.22 294.92 198.31 287.29 184.4 192.62 236.39 177.35 208.57 92.19 255.33 59.34 255.33 183.59 187.1 198.87 214.92 279.68 170.54 272.05 156.64"/>
<polygon class="cls-15" points="315 160.22 294.92 198.31 287.29 184.4 192.62 236.39 177.35 208.57 92.19 255.33 73.39 255.33 179.63 196.99 194.91 224.81"/>
<path class="cls-16" transform="translate(-.18 -.46)" d="m139 189.9l-5.5 3.78a8.6 8.6 0 0 0 2.14 5.2l6.5-4.3z"/>
<path class="cls-17" transform="translate(-.18 -.46)" d="m136.42 196.87c0.82 1 1.18 1.7 0.35 3-0.53 0.85-2 9.62-1.51 12.27s-1.56 2.84-2.66 2.73-6.94-19.87-6.94-19.87 5.55-2.65 7.53-2.67 2.1 2.76 3.23 4.54z"/>
<path class="cls-18" transform="translate(-.18 -.46)" d="M181.23,135.63s-.59,32.27-4,38.64S140.92,196,140.92,196a14.65,14.65,0,0,1-3-6.29s9.26-8.13,12.92-11.81a78.85,78.85,0,0,1,13.62-10.31l-.83-36.67Z"/>
<path class="cls-19" transform="translate(-.18 -.46)" d="m139.08 187.93a20 20 0 0 0 -3.07 2.25s1.86 6.17 5 6.91l2.38-1.51s-3.39-4.19-4.31-7.65z"/>
<path class="cls-16" transform="translate(-.18 -.46)" d="M234.63,178.31l3.45,5.72a8.58,8.58,0,0,0,5.31-1.82l-3.89-6.75Z"/>
<path class="cls-17" transform="translate(-.18 -.46)" d="M241.62,181.06c.83-.95,1.51-1.41,2.91-.8.91.41,9.8.49,12.35-.34s4.06,1.68,3.1,2.22c-5.21,2.88-18.6,9.84-18.6,9.84s-3.45-5.08-3.76-7S240,182.45,241.62,181.06Z"/>
<path class="cls-19" transform="translate(-.18 -.46)" d="M179.56,117.3s36.17,14,40.89,19.47S241,176.53,241,176.53s-2.65,4.83-6.4,3.87c0,0-8.06-11.88-10.92-16.45-3-4.77-10-10.49-13.37-20.79,0,0-19.32-.69-34-3.09-9.91-1.62-16.79-8.73-14.39-18.48l0-.08a1.69,1.69,0,0,1,1.32-1.14Z"/>
<path class="cls-20" transform="translate(-.18 -.46)" d="m232.72 178.74a16.61 16.61 0 0 0 2 2.8s4.72-1.27 7-4.86l-1.22-2.41a41.44 41.44 0 0 1 -7.78 4.47z"/>
<path class="cls-16" transform="translate(-.18 -.46)" d="M253.65,51.45c-1.15-.26-5.88,2.6-6.08,2.65s-1.17-.21-2.14-.27-1.52.28-2.23,1.62A19.17,19.17,0,0,0,242,59.08c-.45.22-1,.45-1.49.69q1.2,2.16,2.57,4.24l2.15-1.43a2.44,2.44,0,0,0,1.41.06c1.16-.34,2.15-.72,2.73-1l.54-.23h0a2.48,2.48,0,0,0,1.74-.11c1.19-.4,2-1.34,1.94-1.93s-.73-.9-.73-.9a1.47,1.47,0,0,0,.41-1.1c-.06-.64-1.19-1.18-1.19-1.18A1.1,1.1,0,0,0,252,55c-.47-.59-1.92,0-2.05.1C250.18,54.92,254.76,51.7,253.65,51.45Z"/>
<path class="cls-21" transform="translate(-.18 -.46)" d="M244.82,57.66a.2.2,0,0,1-.13,0,.27.27,0,0,1-.13-.35l.52-1.14a.28.28,0,0,1,.38-.12,3.49,3.49,0,0,0,2.37.36,1.06,1.06,0,0,0,.64-.45.59.59,0,0,0,0-.44.27.27,0,0,1,.48-.24,1.13,1.13,0,0,1,0,.88,1.45,1.45,0,0,1-1,.76,3.72,3.72,0,0,1-2.54-.28l-.41.89A.25.25,0,0,1,244.82,57.66Z"/>
<path class="cls-21" transform="translate(-.18 -.46)" d="M249.88,61.47h0l-.55.23a2.75,2.75,0,0,1-.64-1.73,2.06,2.06,0,0,0-.38-1.19,1.6,1.6,0,0,1-.46-1,2.49,2.49,0,0,1,.06-.88c0-.1.05-.19.07-.26a2.24,2.24,0,0,1,.14-.34.27.27,0,0,1,.48.24l0,.06a2.41,2.41,0,0,0-.19,1,1.16,1.16,0,0,0,.31.76,2.42,2.42,0,0,1,.53,1.49A2,2,0,0,0,249.88,61.47Z"/>
<path class="cls-21" transform="translate(-.18 -.46)" d="M246,59.73a.26.26,0,0,1-.25-.13.28.28,0,0,1,.11-.37h0a3.28,3.28,0,0,0,1.61-2.4.26.26,0,0,1,.27-.25.26.26,0,0,1,.26.28,3.74,3.74,0,0,1-1.88,2.84Z"/>
<path class="cls-17" transform="translate(-.18 -.46)" d="m243.72 63.9s-14.88 9.53-19.16 10.27-17.45-1.17-17.45-1.17a36.57 36.57 0 0 1 -4 -0.49c-4-0.73-6.32-2-7.69-3.78-2.28-2.88-0.91-7 0.38-10.35 0 0 2.08 1.64 12.5 3.83l15.61 3s11.15-3.62 17.33-6.36c0.01 0.04 1.35 4.28 2.48 5.05z"/>
<polygon class="cls-22" points="241.17 57.93 239.18 58.81 242.16 64.84 244.02 63.8"/>
<path class="cls-23" transform="translate(-.18 -.46)" d="m203.12 72.52c-4-0.73-6.32-2-7.69-3.78-0.88-3.67-1.43-7.71 0-8.72a125.93 125.93 0 0 0 7.69 12.5z"/>
<rect class="cls-18" transform="translate(-47.08 184.31) rotate(-65.34)" x="101.07" y="98.67" width="39.09" height="60.57" rx="2.44" ry="2.44"/>
<path class="cls-19" transform="translate(-.18 -.46)" d="M147.53,142.9,155.27,126a2.44,2.44,0,0,0-1.2-3.24L103.46,99.57a2.44,2.44,0,0,0-3.23,1.2l-7.74,16.86Z"/>
<path class="cls-14" transform="translate(-.18 -.46)" d="M138.84,109.84l-2.26,4.93-2.5-1.15,2.2-4.79-2.43-1.11-.12-.06-1.48-.68-.18-.08L125.66,104l-2.2,4.79L121,107.6l2.26-4.93a2.61,2.61,0,0,1,3.45-1.28l6,2.76.45.2.84.39.17.08,3.43,1.57A2.6,2.6,0,0,1,138.84,109.84Z"/>
<path class="cls-15" transform="translate(-.18 -.46)" d="M133.73,107.66l-1.48-.68-.18-.08a21,21,0,0,1,.61-2.75l.45.2.84.39A12.94,12.94,0,0,0,133.73,107.66Z"/>
<rect class="cls-15" transform="translate(-26.22 173.51) rotate(-65.34)" x="121.64" y="105.91" width="1.95" height="2.75"/>
<rect class="cls-15" transform="translate(-24.05 188.94) rotate(-65.34)" x="134.76" y="111.93" width="1.95" height="2.75"/>
<rect class="cls-15" transform="translate(-51.18 166.38) rotate(-65.34)" x="101.34" y="121.26" width="6.48" height="3.84" rx=".53" ry=".53"/>
<path class="cls-14" transform="translate(-.18 -.46)" d="M107.46,121.52,106.33,124l-3.49-1.6,1.13-2.46a.52.52,0,0,1,.7-.26l2.53,1.16A.53.53,0,0,1,107.46,121.52Z"/>
<rect class="cls-15" transform="translate(-46.07 202.68) rotate(-65.34)" x="132.2" y="135.43" width="6.48" height="3.84" rx=".53" ry=".53"/>
<path class="cls-14" transform="translate(-.18 -.46)" d="M138.32,135.69l-1.13,2.46-3.5-1.6,1.13-2.47a.55.55,0,0,1,.71-.26l2.53,1.16A.54.54,0,0,1,138.32,135.69Z"/>
<path class="cls-16" transform="translate(-.18 -.46)" d="M136.29,105.81c-.45-.17-1.17-.51-1.61-.74a.65.65,0,0,0-.1-.56.69.69,0,0,0-1.12,0,5.45,5.45,0,0,0-.86,2.6l.73.37s-.67.81-1.25.67a.94.94,0,0,1-.68-1s-.41.71-1,.46a1.11,1.11,0,0,1-.61-1,.92.92,0,0,1-1.39-.52s-1,.39-1.18-.47,1.08-3.48,1.08-3.48a28.07,28.07,0,0,1,3.94-6.83c.34-.76.75-1.66,1.21-2.65,1,.71,2.07,1.37,3.09,2.07L138.36,96c-.92,1.22-1.69,2.22-2.18,2.85a12.91,12.91,0,0,1,0,2.08C136,102.15,136.82,104.48,136.29,105.81Z"/>
<path class="cls-17" transform="translate(-.18 -.46)" d="M162.21,77.34l13.24-5.41s5.51-9.49,2.17-15.76c0,0-13.62,6.26-20.59,10.17,0,0-10.41,5.64-13.9,9.5L132.29,94.2s3.25,3.73,5.48,3.49c4-5.46,9.63-13.29,10.72-15.89Z"/>
<path class="cls-22" transform="translate(-.18 -.46)" d="M132.78,92.92a3.43,3.43,0,0,0-1.47,2.28l6,3.93a7.39,7.39,0,0,0,1.6-2.2Z"/>
<path class="cls-17" transform="translate(-.18 -.46)" d="M195.18,114.72a33.86,33.86,0,0,0,0,9.23c-5.41-2.15-13.46-6.18-21.16-2.8a20.74,20.74,0,0,1-12.33,1.18,48.26,48.26,0,0,1,1.19-14.21c1.8-7.13,3.58-16.05,4.21-19.57.53-3,1-5.78,1.54-8.39q.48-2.46.93-4.68h0c1.74-8.47,2.5-15.74,3.85-16.85C177.19,55.5,186,52.41,186,52.41l5.87,1.64s6.27,4.85,6.21,8.38c-.55,31.17-1.38,31.38-2,40.86A87.91,87.91,0,0,1,195.18,114.72Z"/>
<path class="cls-23" transform="translate(-.18 -.46)" d="M168.15,109.14l-.18,0a.4.4,0,0,1-.37-.43.4.4,0,0,1,.43-.36h.1c.92.06,8.3.49,13.54-1.46a26.21,26.21,0,0,0,10.74-7.79.4.4,0,0,1,.64.48,26.57,26.57,0,0,1-11.1,8.06C176.62,109.61,169.42,109.23,168.15,109.14Z"/>
<path class="cls-23" transform="translate(-.18 -.46)" d="M186.61,109.55a.4.4,0,0,0-.59-.35c-3.22,1.77-9.12,4.26-15.5,3.31a.4.4,0,0,0-.12.79,19.78,19.78,0,0,0,2.4.21,27.86,27.86,0,0,0,13.61-3.61.42.42,0,0,0,.2-.35Z"/>
<path class="cls-23" transform="translate(-.18 -.46)" d="M180.15,70.72A42.71,42.71,0,0,1,168.85,79c.31-1.64.66-3.33,1-4.8h0l.65-.24Z"/>
<polygon class="cls-24" points="194.44 98.58 190.85 109.15 186.43 99.06 189.63 64.53 189.71 63.18 191.33 63.01 191.49 64.84"/>
<polygon class="cls-25" points="191.49 64.84 190.68 65.77 189.63 64.53 189.71 63.18 191.33 63.01"/>
<polygon class="cls-24" points="192.61 60.58 190.68 64.76 187.66 60.28 190.68 56.61"/>
<path class="cls-23" transform="translate(-.18 -.46)" d="M183.59,57.51a7.56,7.56,0,0,1-.08-3.72,3.29,3.29,0,0,1,.29-.83c.75-1.2,2.45-.66,2.45-.66.82,3.52,4.61,4.77,4.61,4.77l-3.62,5.81S184.83,62.1,183.59,57.51Z"/>
<path class="cls-23" transform="translate(-.18 -.46)" d="m193.13 53.89s2.25 2.13 1.59 4.67l-1 4.33-2.83-5.82a12.49 12.49 0 0 0 2.24 -3.18z"/>
<path class="cls-16" transform="translate(-.18 -.46)" d="M194.81,49.6l-1.21,3.74-.77,2.39c-.13.42-.77,1.44-1.21,1.42A7.43,7.43,0,0,1,186,54l.83-5.81a22.19,22.19,0,0,1,3.29-.33h0Z"/>
<path class="cls-21" transform="translate(-.18 -.46)" d="M194.81,49.6l-1.21,3.74a9,9,0,0,1-4-5.44l.49,0Z"/>
<path class="cls-16" transform="translate(-.18 -.46)" d="M200.71,36a49.28,49.28,0,0,1,.54,6.34v0h0c0,.49,0,1-.05,1.36,0,.25,0,.5-.08.76-.06.48-.1,1-.14,1.58a.28.28,0,0,0,0,.09,21.82,21.82,0,0,1-.3,2.5h0c-.07.36-.16.72-.26,1.07-.07.2-.13.39-.21.57-1,2.46-1.75,4.42-8,.27-2.86-1.91-6.08-1.3-7.44-4.78l0-.06h0A35.64,35.64,0,0,1,183,39.05a5.22,5.22,0,0,1,1.78-4.86c3.81-3.24,8.5-3.2,11.69-2.62A5.21,5.21,0,0,1,200.71,36Z"/>
<path class="cls-21" transform="translate(-.18 -.46)" d="M200.41,49.7c-.07.2-.13.39-.21.57h-.29a2.87,2.87,0,0,1-1.29-.48.27.27,0,0,1,.32-.44,2.46,2.46,0,0,0,1,.38A1.68,1.68,0,0,0,200.41,49.7Z"/>
<path class="cls-21" transform="translate(-.18 -.46)" d="M189.44,44.51a3.13,3.13,0,0,0,1.79-1.32S191,46,188.75,46Z"/>
<path class="cls-26" transform="translate(-.18 -.46)" d="M201.85,32c1.83-2,1.84-5.24-1-5.69-4.75-.75-7.47-1.68-10.35-1.79s-4.32,3.16-7.28,4-4.84,6-3.89,8.94c.14.44.28.84.41,1.23a36.83,36.83,0,0,0,5.72,10.52l.26.35c.18.24,1.65.6,3.07-1.75A6.72,6.72,0,0,0,190,44.34c-2.83-.38-4.95-3.89-3.7-5.74a2.26,2.26,0,0,1,1.31-.72A3.21,3.21,0,0,1,191,39.76c.35,1.06.59,1.82.59,1.82l1.64.13a25.05,25.05,0,0,1-.85-3.67c0-1,1.44-.62,1.19-2.48s-1.86-2.08-1.17-2.8,5.39-.15,6.75.62S201.85,32,201.85,32Z"/>
<path class="cls-21" transform="translate(-.18 -.46)" d="M190,41.87a.25.25,0,0,1-.26-.12A3.67,3.67,0,0,0,187.3,40a.24.24,0,1,1,.08-.47,4.09,4.09,0,0,1,2.78,2,.24.24,0,0,1-.11.32Z"/>
<path class="cls-21" transform="translate(-.18 -.46)" d="M188.25,41.41a.33.33,0,0,1-.14,0,.24.24,0,0,1-.13-.31,2.27,2.27,0,0,1,.74-.88.24.24,0,0,1,.28.39,1.74,1.74,0,0,0-.58.66A.25.25,0,0,1,188.25,41.41Z"/>
<path class="cls-26" transform="translate(-.18 -.46)" d="M199.53,39.26c.1.53-.09,1-.42,1.07s-.69-.31-.79-.84.09-1,.42-1.06S199.43,38.74,199.53,39.26Z"/>
<path class="cls-26" transform="translate(-.18 -.46)" d="M195.6,37A6.91,6.91,0,0,1,200,36v1.11a12.5,12.5,0,0,0-4.21,1.16A1.92,1.92,0,0,1,195.6,37Z"/>
<path class="cls-16" transform="translate(-.18 -.46)" d="M201,39s1.72,3.06,1.84,4.5c.06.81-2.11,1.35-2.11,1.35Z"/>
<path class="cls-24" transform="translate(-.18 -.46)" d="M201,46a.28.28,0,0,0,0,.09,21.82,21.82,0,0,1-.3,2.5h-.19a2.85,2.85,0,0,1-2.9-2.47Z"/>
<path class="cls-27" transform="translate(-.18 -.46)" d="M245,97.63a3.89,3.89,0,1,1,3.88-3.89A3.89,3.89,0,0,1,245,97.63Zm0-6.55a2.67,2.67,0,1,0,2.66,2.66A2.67,2.67,0,0,0,245,91.08Z"/>
<path class="cls-28" transform="translate(-.18 -.46)" d="M259,111.26a3.89,3.89,0,1,1,3.88-3.88A3.89,3.89,0,0,1,259,111.26Zm0-6.55a2.67,2.67,0,1,0,2.66,2.67A2.68,2.68,0,0,0,259,104.71Z"/>
<path class="cls-27" transform="translate(-.18 -.46)" d="M263.8,123.89a.61.61,0,0,1-.61-.61v-2.69a.61.61,0,0,1,1.22,0v2.69A.61.61,0,0,1,263.8,123.89Z"/>
<path class="cls-27" transform="translate(-.18 -.46)" d="M263.8,128.6a.61.61,0,0,1-.61-.61V125.3a.61.61,0,0,1,1.22,0V128A.61.61,0,0,1,263.8,128.6Z"/>
<path class="cls-27" transform="translate(-.18 -.46)" d="M267.57,124.9h-2.41a.61.61,0,0,1,0-1.22h2.41a.61.61,0,1,1,0,1.22Z"/>
<path class="cls-27" transform="translate(-.18 -.46)" d="M262.44,124.9H260a.61.61,0,1,1,0-1.22h2.41a.61.61,0,1,1,0,1.22Z"/>
<path class="cls-28" transform="translate(-.18 -.46)" d="M242.34,108.83a.61.61,0,0,1-.61-.61v-2.69a.61.61,0,1,1,1.22,0v2.69A.61.61,0,0,1,242.34,108.83Z"/>
<path class="cls-28" transform="translate(-.18 -.46)" d="M242.34,113.53a.61.61,0,0,1-.61-.61v-2.68a.61.61,0,1,1,1.22,0v2.68A.61.61,0,0,1,242.34,113.53Z"/>
<path class="cls-28" transform="translate(-.18 -.46)" d="M246.11,109.84H243.7a.61.61,0,0,1-.61-.61.61.61,0,0,1,.61-.61h2.41a.61.61,0,0,1,.61.61A.61.61,0,0,1,246.11,109.84Z"/>
<path class="cls-28" transform="translate(-.18 -.46)" d="M241,109.84h-2.41a.61.61,0,0,1-.61-.61.61.61,0,0,1,.61-.61H241a.61.61,0,0,1,.61.61A.61.61,0,0,1,241,109.84Z"/>
<path class="cls-27" transform="translate(-.18 -.46)" d="m101.28 42.48a3.89 3.89 0 1 1 3.88 -3.89 3.89 3.89 0 0 1 -3.88 3.89zm0-1.22a2.67 2.67 0 1 0 -2.67 -2.67 2.68 2.68 0 0 0 2.67 2.67z"/>
<path class="cls-28" transform="translate(-.18 -.46)" d="m115.43 55.32a3.89 3.89 0 1 1 3.89 -3.89 3.89 3.89 0 0 1 -3.89 3.89zm0-1.22a2.67 2.67 0 1 0 -2.66 -2.67 2.68 2.68 0 0 0 2.66 2.67z"/>
<path class="cls-27" transform="translate(-.18 -.46)" d="M120.56,33.1a.61.61,0,0,0-.61-.61h-2.69a.61.61,0,0,0,0,1.22H120A.61.61,0,0,0,120.56,33.1Z"/>
<path class="cls-27" transform="translate(-.18 -.46)" d="M125.26,33.1a.61.61,0,0,0-.61-.61H122a.61.61,0,0,0,0,1.22h2.68A.61.61,0,0,0,125.26,33.1Z"/>
<path class="cls-27" transform="translate(-.18 -.46)" d="M121.57,36.87V34.46a.61.61,0,0,0-.61-.61.61.61,0,0,0-.61.61v2.41a.61.61,0,0,0,.61.61A.61.61,0,0,0,121.57,36.87Z"/>
<path class="cls-27" transform="translate(-.18 -.46)" d="M121.57,31.74V29.33a.61.61,0,0,0-.61-.61.61.61,0,0,0-.61.61v2.41a.61.61,0,0,0,.61.61A.61.61,0,0,0,121.57,31.74Z"/>
<path class="cls-28" transform="translate(-.18 -.46)" d="M92.09,54.1a.61.61,0,0,0-.61-.61H88.79a.61.61,0,0,0-.61.61.62.62,0,0,0,.61.61h2.69A.61.61,0,0,0,92.09,54.1Z"/>
<path class="cls-28" transform="translate(-.18 -.46)" d="M96.8,54.1a.61.61,0,0,0-.61-.61H93.5a.61.61,0,0,0-.61.61.61.61,0,0,0,.61.61h2.69A.62.62,0,0,0,96.8,54.1Z"/>
<path class="cls-28" transform="translate(-.18 -.46)" d="M93.1,57.87V55.46a.61.61,0,1,0-1.22,0v2.41a.61.61,0,1,0,1.22,0Z"/>
<path class="cls-28" transform="translate(-.18 -.46)" d="M93.1,52.74V50.32a.61.61,0,0,0-1.22,0v2.42a.61.61,0,1,0,1.22,0Z"/>
<rect class="cls-29" x="222.13" y="12.14" width="22.25" height="22.25" rx="7.15" ry="7.15"/>
<path class="cls-24" transform="translate(-.18 -.46)" d="M226.32,21.06a3,3,0,1,1,6,0,3,3,0,1,1-6,0Zm9.6-3h2.72L231,29.35h-2.72Zm-5.9,3c0-1.07-.36-1.4-.71-1.4s-.71.33-.71,1.4.36,1.4.71,1.4S230,22.14,230,21.06Zm4.55,5.31a3,3,0,1,1,6,0,3,3,0,1,1-6,0Zm3.7,0c0-1.07-.35-1.4-.7-1.4s-.71.33-.71,1.4.35,1.4.71,1.4S238.27,27.45,238.27,26.37Z"/>
<rect class="cls-29" x="54.33" y="103.78" width="22.25" height="22.25" rx="7.15" ry="7.15"/>
<path class="cls-24" transform="translate(-.18 -.46)" d="M66.9,120.89v1.71H64.73V121a9.2,9.2,0,0,1-4-1.07l1.17-2.66a7.42,7.42,0,0,0,3.56,1c1,0,1.4-.22,1.4-.59,0-1.36-6-.26-6-4.28,0-1.74,1.26-3.2,3.78-3.56v-1.68h2.17v1.65a7.94,7.94,0,0,1,3.13.89l-1.09,2.63a6.59,6.59,0,0,0-3-.79c-1.07,0-1.41.3-1.4.67,0,1.3,6,.21,6,4.19C70.49,119,69.29,120.47,66.9,120.89Z"/>
</g>
</g>
</svg>
