<?xml version="1.0" encoding="UTF-8"?>
<svg data-name="Layer 1" viewBox="0 0 449.47 838.67" xmlns="http://www.w3.org/2000/svg" xmlns:xlink="http://www.w3.org/1999/xlink">
<defs>
<style>.cls-1{fill:none;}.cls-2{fill:url(#b);}.cls-3{fill:#241352;}.cls-4{fill:#dde6e9;}.cls-23,.cls-26,.cls-29,.cls-31,.cls-32,.cls-33,.cls-34,.cls-35,.cls-5,.cls-6,.cls-8{isolation:isolate;}.cls-6{font-size:14.04px;}.cls-22,.cls-23,.cls-26,.cls-6,.cls-8{fill:#fff;}.cls-23,.cls-26,.cls-6,.cls-8{font-family:ArialMT, Arial;}.cls-7{letter-spacing:-0.11em;}.cls-8{font-size:15.6px;}.cls-9{fill:url(#i);}.cls-10{clip-path:url(#k);}.cls-11{opacity:0.29;}.cls-12{opacity:0.25;}.cls-13,.cls-29{fill:#3b3b3b;}.cls-14{fill:#ff7180;}.cls-15{opacity:0.36;}.cls-16{fill:#7caaff;}.cls-17{opacity:0.46;}.cls-18{fill:#ff947e;}.cls-19{opacity:0.34;}.cls-20{fill:#f4f6fb;}.cls-21{fill:url(#h);}.cls-23,.cls-25{opacity:0.48;}.cls-23{font-size:8.42px;}.cls-24{letter-spacing:-0.06em;}.cls-26{font-size:7.97px;}.cls-27{fill:#f8f8f6;}.cls-28{clip-path:url(#j);}.cls-29,.cls-31,.cls-32,.cls-33,.cls-34,.cls-35{opacity:0.72;}.cls-30{fill:#f0f8ff;}.cls-31{fill:url(#a);}.cls-32{fill:url(#g);}.cls-33{fill:url(#f);}.cls-34{fill:url(#e);}.cls-35{fill:url(#d);}.cls-36{fill:#ff998f;}.cls-37{fill:#ffb9b4;}.cls-38{fill:url(#c);}.cls-39{fill:#ffd3b8;}.cls-40{fill:#4c3f84;}.cls-41{fill:#110b2d;}</style>
<linearGradient id="b" x1="21.51" x2="446.19" y1="857.5" y2="-196.61" gradientTransform="matrix(1 0 0 -1 0 818)" gradientUnits="userSpaceOnUse">
<stop stop-color="#fff" offset=".08"/>
<stop stop-color="#d9e1e2" offset="1"/>
</linearGradient>
<linearGradient id="i" x1="88.45" x2="355.09" y1="119.82" y2="80.11" gradientTransform="matrix(1 0 0 -1 0 818)" gradientUnits="userSpaceOnUse">
<stop stop-color="#00c1ce" offset=".05"/>
<stop stop-color="#82eba1" offset="1"/>
</linearGradient>
<clipPath id="k" transform="translate(15.62 20.67)">
<path class="cls-1" d="M355.4,798.1H49.6A26.12,26.12,0,0,1,23.5,772V46A26.12,26.12,0,0,1,49.6,19.9H355.5A26.12,26.12,0,0,1,381.6,46V772A26.2,26.2,0,0,1,355.4,798.1Z"/>
</clipPath>
<linearGradient id="h" x1="153.64" x2="572.42" y1="908.4" y2="-131.05" xlink:href="#b"/>
<clipPath id="j" transform="translate(15.62 20.67)">
<path class="cls-1" d="M64.2,24.5H340.8a40.65,40.65,0,0,1,40.6,40.7V520.6H23.6V65.2A40.59,40.59,0,0,1,64.2,24.5Z"/>
</clipPath>
<linearGradient id="a" x1="319.34" x2="146.98" y1="645.47" y2="486.45" gradientTransform="matrix(1 0 0 -1 0 818)" gradientUnits="userSpaceOnUse">
<stop stop-color="#a568fa" offset=".05"/>
<stop stop-color="#00d8fb" offset="1"/>
</linearGradient>
<linearGradient id="g" x1="343.17" x2="170.41" y1="619.79" y2="460.41" xlink:href="#a"/>
<linearGradient id="f" x1="356.98" x2="182.47" y1="607.37" y2="446.37" xlink:href="#a"/>
<linearGradient id="e" x1="378.95" x2="206.58" y1="580.78" y2="421.75" xlink:href="#a"/>
<linearGradient id="d" x1="390.8" x2="216.29" y1="569.66" y2="408.67" xlink:href="#a"/>
<linearGradient id="c" x1="143.97" x2="186.36" y1="492.9" y2="380.69" gradientTransform="matrix(1 0 0 -1 0 818)" gradientUnits="userSpaceOnUse">
<stop stop-color="#fd8f7e" offset="0"/>
<stop stop-color="#fd847e" offset=".15"/>
<stop stop-color="#fd6280" offset=".7"/>
<stop stop-color="#fd5580" offset="1"/>
</linearGradient>
</defs>
<title>codeblock-mobile-home-page</title>
<path class="cls-2" transform="translate(15.62 20.67)" d="M371.3,818H33.1A33.08,33.08,0,0,1,0,784.9V33.1A33.08,33.08,0,0,1,33.1,0H371.3a33.08,33.08,0,0,1,33.1,33.1V784.9A33,33,0,0,1,371.3,818Z"/>
<path class="cls-3" transform="translate(15.62 20.67)" d="M355.4,798.1H49.6A26.12,26.12,0,0,1,23.5,772V46A26.12,26.12,0,0,1,49.6,19.9H355.5A26.12,26.12,0,0,1,381.6,46V772A26.2,26.2,0,0,1,355.4,798.1Z"/>
<path class="cls-4" transform="translate(15.62 20.67)" d="m260.4 771h-123.6a1 1 0 0 1 -1 -1v-2.9a1 1 0 0 1 1 -1h123.6a1 1 0 0 1 1 1v2.9a1.08 1.08 0 0 1 -1 1z"/>
<rect class="cls-1" x="64.92" y="610.47" width="297.5" height="83.9"/>
<g class="cls-5">
<text class="cls-6" transform="translate(69.52 620.4)">
<tspan class="cls-7">T</tspan>
<tspan x="7.02" y="0">ogether we can build the webapp you have</tspan>
</text>
<text class="cls-6" transform="translate(80.69 648.5)">been dreaming of or turn that idea into a</text>
<text class="cls-6" transform="translate(151.21 676.6)">working prototype!</text>
</g>
<text class="cls-8" transform="translate(119.97 582.4)">Enhance Productivity</text>
<path class="cls-9" transform="translate(15.62 20.67)" d="M313.4,743.3H97.4a11.61,11.61,0,0,1-11.6-11.6V699.5a11.61,11.61,0,0,1,11.6-11.6h216A11.61,11.61,0,0,1,325,699.5v32.2A11.61,11.61,0,0,1,313.4,743.3Z"/>
<text class="cls-8" transform="translate(181.04 740.85)">Continue</text>
<g class="cls-10">
<g class="cls-11">
<g class="cls-12">
<path class="cls-13" transform="translate(15.62 20.67)" d="m44 196.2c-9-23.4-11.5-48.3 14.5-59.8 19.4-8.6 35.4 1.7 55.1 4.8 22.3 3.6 45-2.3 61.5-18.1 31.5-30.2 28-95.7-18.7-108.3-11.6-3.2-24.2 10.7-16.6 21.7 9.1 13.2 23.8 27.1 19.7 45-6.1 26.8-35.6 25.5-55.8 20.8-23-5.2-44-8.9-65.6 3.3-36.6 20.7-48.1 74.1-13 101.7 7.6 6.1 23.4 0.8 18.9-11.1z"/>
</g>
<path class="cls-14" transform="translate(15.62 20.67)" d="m42 194.2c-9-23.4-11.5-48.3 14.5-59.8 19.4-8.6 35.4 1.7 55.1 4.8 22.3 3.6 45-2.3 61.5-18.1 31.5-30.2 28-95.7-18.7-108.3-11.6-3.2-24.2 10.7-16.6 21.7 9.1 13.2 23.8 27.1 19.7 45-6.1 26.8-35.6 25.5-55.8 20.8-23-5.2-44-8.9-65.6 3.3-36.6 20.7-48.1 74.1-13 101.7 7.6 6.1 23.4 0.8 18.9-11.1z"/>
</g>
</g>
<g class="cls-10">
<g class="cls-15">
<g class="cls-12">
<path class="cls-13" transform="translate(15.62 20.67)" d="m334.7 523.1c-50.3 7.3-84.9 53.2-65.3 104.3 18.3 47.7 80.6 70.3 124.2 43.2 40.5-25.1 53.2-84.7 25.3-123.6-27-37.6-94.7-51.1-125.2-11.1-9.6 12.6 6.3 31.2 20.3 26.5 24.6-8.2 47.7-18.8 70.5 1.5 21.4 19 16 55.4-5.5 72.4-22.8 18.1-59.6 7.5-73.4-17.1-15.2-27.1 4.1-73.1 32.2-84.6 7.2-2.9 4.5-12.6-3.1-11.5z"/>
</g>
<path class="cls-16" transform="translate(15.62 20.67)" d="m332.7 521.1c-50.3 7.3-84.9 53.2-65.3 104.3 18.3 47.7 80.6 70.3 124.2 43.2 40.5-25.1 53.2-84.7 25.3-123.6-27-37.6-94.7-51.1-125.2-11.1-9.6 12.6 6.3 31.2 20.3 26.5 24.6-8.2 47.7-18.8 70.5 1.5 21.4 19 16 55.4-5.5 72.4-22.8 18.1-59.6 7.5-73.4-17.1-15.2-27.1 4.1-73.1 32.2-84.6 7.2-2.9 4.5-12.6-3.1-11.5z"/>
</g>
</g>
<g class="cls-10">
<g class="cls-17">
<g class="cls-12">
<path class="cls-13" transform="translate(15.62 20.67)" d="m341.4 159.9c13.7-4.5 24.1-16.5 34.7-25.8 12.4-11 24.8-21.9 37.2-33 10.3-9.2-4.9-24.4-15.2-15.2q-17.55 15.75-34.9 31.5c-10.4 9.4-24.2 18.6-30.1 31.6-2.5 5.5 1.6 13.1 8.3 10.9z"/>
</g>
<path class="cls-18" transform="translate(15.62 20.67)" d="m339.4 157.9c13.7-4.5 24.1-16.5 34.7-25.8 12.4-11 24.8-21.9 37.2-33 10.3-9.2-4.9-24.4-15.2-15.2q-17.55 15.75-34.9 31.5c-10.4 9.4-24.2 18.6-30.1 31.6-2.5 5.5 1.6 13.1 8.3 10.9z"/>
</g>
</g>
<g class="cls-10">
<g class="cls-19">
<g class="cls-12">
<path class="cls-13" transform="translate(15.62 20.67)" d="m-13.2 466c4.6 13.7 16.8 23.9 26.3 34.4 11.1 12.3 22.3 24.5 33.5 36.8 9.4 10.2 24.2-5.3 14.9-15.4-10.6-11.6-21.3-23-32-34.5-9.6-10.3-19-23.9-32-29.7-5.4-2.6-13 1.7-10.7 8.4z"/>
</g>
<path class="cls-20" transform="translate(15.62 20.67)" d="m-15.2 464c4.6 13.7 16.8 23.9 26.3 34.4 11.1 12.3 22.3 24.5 33.5 36.8 9.4 10.2 24.2-5.3 14.9-15.4-10.6-11.6-21.3-23-32-34.5-9.6-10.3-19-23.9-32-29.7-5.4-2.6-13 1.7-10.7 8.4z"/>
</g>
</g>
<path class="cls-21" transform="translate(15.62 20.67)" d="M94.9,11.9V23.1a22.62,22.62,0,0,0,22.7,22.7H276.5a22.75,22.75,0,0,0,22.7-22.7V7.1Z"/>
<g class="cls-17">
<path class="cls-22" transform="translate(15.62 20.67)" d="m310.2 34.5a0.9 0.9 0 1 1 -0.9 0.9c-0.1-0.5 0.4-0.9 0.9-0.9z"/>
<path class="cls-22" transform="translate(15.62 20.67)" d="M312.4,33.2c-.1,0-.1-.1,0,0l-.1-.1a3,3,0,0,0-4.1.1l-.1.1-.2.2a.57.57,0,1,0,.8.8l.3-.3a1.87,1.87,0,0,1,2.6,0l.2.2a.61.61,0,0,0,.8,0,.76.76,0,0,0,.2-.4.52.52,0,0,0-.2-.4l-.2-.2Z"/>
<path class="cls-22" transform="translate(15.62 20.67)" d="M313.9,32l-.2-.2-.1-.2a.1.1,0,0,1-.1-.1,4.83,4.83,0,0,0-6.7.2l-.3.3a.49.49,0,0,0,.7.7l.3-.3a3.8,3.8,0,0,1,5.4,0l.3.3a.48.48,0,0,0,.7,0c.2-.1.2-.5,0-.7Z"/>
</g>
<text class="cls-23" transform="translate(65.65 57.68)">10:30
<tspan class="cls-24" x="21.07" y="0"></tspan>
<tspan x="22.94" y="0">AM</tspan>
</text>
<g class="cls-25">
<text class="cls-26" transform="translate(334.21 56.93)">85%</text>
<path class="cls-27" transform="translate(15.62 20.67)" d="M341.3,37a.68.68,0,0,1-.7-.7V31.1a.68.68,0,0,1,.7-.7h12a.68.68,0,0,1,.7.7v1.1h.9v3.1H354v1.1a.68.68,0,0,1-.7.7Zm12.2-6.1L341,31v5.6h12.5Zm-12,.6h9.1v4.6h-9.1Z"/>
</g>
<g class="cls-28">
<g class="cls-11">
<g class="cls-12">
<path class="cls-13" transform="translate(15.62 20.67)" d="M200.3,523.7c-9-23.4-11.5-48.3,14.5-59.8,19.4-8.6,35.4,1.7,55.1,4.8,22.3,3.6,45-2.3,61.5-18.1,31.5-30.2,28-95.7-18.7-108.3-11.6-3.2-24.2,10.7-16.6,21.7,9.1,13.2,23.8,27.1,19.7,45-6.1,26.8-35.6,25.5-55.8,20.8-23-5.2-44-8.9-65.6,3.3-36.6,20.7-48.1,74.1-13,101.7,7.7,6.1,23.5.8,18.9-11.1Z"/>
</g>
<path class="cls-14" transform="translate(15.62 20.67)" d="M197.2,520.6c-9-23.4-11.5-48.3,14.5-59.8,19.4-8.6,35.4,1.7,55.1,4.8,22.3,3.6,45-2.3,61.5-18.1,31.5-30.2,28-95.7-18.7-108.3C298,336,285.4,349.9,293,360.9c9.1,13.2,23.8,27.1,19.7,45-6.1,26.8-35.6,25.5-55.8,20.8-23-5.2-44-8.9-65.6,3.3-36.6,20.7-48.1,74.1-13,101.7,7.7,6.1,23.4.8,18.9-11.1Z"/>
</g>
</g>
<g class="cls-28">
<g class="cls-12">
<path class="cls-13" transform="translate(15.62 20.67)" d="M386.9,372.7H159.7a7.81,7.81,0,0,1-7.8-7.8V199.5a7.81,7.81,0,0,1,7.8-7.8H386.9a7.81,7.81,0,0,1,7.8,7.8V364.9A7.81,7.81,0,0,1,386.9,372.7Z"/>
<path class="cls-13" transform="translate(15.62 20.67)" d="m243.7 325.9h-23.3a3.12 3.12 0 0 1 -3.1 -3.1v-82.7a3.12 3.12 0 0 1 3.1 -3.1h23.3a3.12 3.12 0 0 1 3.1 3.1v82.7a3 3 0 0 1 -3.1 3.1z"/>
<path class="cls-13" transform="translate(15.62 20.67)" d="m206.4 325.9h-23.3a3.12 3.12 0 0 1 -3.1 -3.1v-82.7a3.12 3.12 0 0 1 3.1 -3.1h23.3a3.12 3.12 0 0 1 3.1 3.1v82.7a3.12 3.12 0 0 1 -3.1 3.1z"/>
<path class="cls-29" transform="translate(15.62 20.67)" d="M206.4,325.9H183.1a3.12,3.12,0,0,1-3.1-3.1V276a3.12,3.12,0,0,1,3.1-3.1h23.3a3.12,3.12,0,0,1,3.1,3.1v46.8A3.12,3.12,0,0,1,206.4,325.9Z"/>
<path class="cls-29" transform="translate(15.62 20.67)" d="m243.7 325.9h-23.3a3.12 3.12 0 0 1 -3.1 -3.1v-20.3a3.12 3.12 0 0 1 3.1 -3.1h23.3a3.12 3.12 0 0 1 3.1 3.1v20.3a3 3 0 0 1 -3.1 3.1z"/>
<path class="cls-13" transform="translate(15.62 20.67)" d="m281.1 325.9h-23.3a3.12 3.12 0 0 1 -3.1 -3.1v-82.7a3.12 3.12 0 0 1 3.1 -3.1h23.3a3.12 3.12 0 0 1 3.1 3.1v82.7a3.12 3.12 0 0 1 -3.1 3.1z"/>
<path class="cls-13" transform="translate(15.62 20.67)" d="m318.4 325.9h-23.3a3.12 3.12 0 0 1 -3.1 -3.1v-82.7a3.12 3.12 0 0 1 3.1 -3.1h23.3a3.12 3.12 0 0 1 3.1 3.1v82.7a3.05 3.05 0 0 1 -3.1 3.1z"/>
<path class="cls-13" transform="translate(15.62 20.67)" d="m355.8 325.9h-23.3a3.12 3.12 0 0 1 -3.1 -3.1v-82.7a3.12 3.12 0 0 1 3.1 -3.1h23.3a3.12 3.12 0 0 1 3.1 3.1v82.7a3.12 3.12 0 0 1 -3.1 3.1z"/>
<path class="cls-29" transform="translate(15.62 20.67)" d="m281.1 325.9h-23.3a3.12 3.12 0 0 1 -3.1 -3.1v-39a3.12 3.12 0 0 1 3.1 -3.1h23.3a3.12 3.12 0 0 1 3.1 3.1v39a3.12 3.12 0 0 1 -3.1 3.1z"/>
<path class="cls-29" transform="translate(15.62 20.67)" d="m318.4 325.9h-23.3a3.12 3.12 0 0 1 -3.1 -3.1v-14.1a3.12 3.12 0 0 1 3.1 -3.1h23.3a3.12 3.12 0 0 1 3.1 3.1v14.1a3.05 3.05 0 0 1 -3.1 3.1z"/>
<path class="cls-29" transform="translate(15.62 20.67)" d="m355.8 325.9h-23.3a3.12 3.12 0 0 1 -3.1 -3.1v-39a3.12 3.12 0 0 1 3.1 -3.1h23.3a3.12 3.12 0 0 1 3.1 3.1v39a3.12 3.12 0 0 1 -3.1 3.1z"/>
<rect class="cls-13" x="195.62" y="359.07" width="178.9" height="4.7"/>
<rect class="cls-13" x="195.62" y="368.37" width="96.5" height="4.7"/>
<rect class="cls-13" x="195.62" y="235.77" width="37.3" height="4.7"/>
</g>
<path class="cls-22" transform="translate(15.62 20.67)" d="M380.7,366.5H153.5a7.81,7.81,0,0,1-7.8-7.8V193.3a7.81,7.81,0,0,1,7.8-7.8H380.7a7.81,7.81,0,0,1,7.8,7.8V358.7A7.81,7.81,0,0,1,380.7,366.5Z"/>
<path class="cls-30" transform="translate(15.62 20.67)" d="m237.5 319.7h-23.3a3.12 3.12 0 0 1 -3.1 -3.1v-82.7a3.12 3.12 0 0 1 3.1 -3.1h23.3a3.12 3.12 0 0 1 3.1 3.1v82.7a3.12 3.12 0 0 1 -3.1 3.1z"/>
<path class="cls-30" transform="translate(15.62 20.67)" d="m200.2 319.7h-23.3a3.12 3.12 0 0 1 -3.1 -3.1v-82.7a3.12 3.12 0 0 1 3.1 -3.1h23.3a3.12 3.12 0 0 1 3.1 3.1v82.7a3.12 3.12 0 0 1 -3.1 3.1z"/>
<path class="cls-31" transform="translate(15.62 20.67)" d="m200.2 319.7h-23.3a3.12 3.12 0 0 1 -3.1 -3.1v-46.8a3.12 3.12 0 0 1 3.1 -3.1h23.3a3.12 3.12 0 0 1 3.1 3.1v46.8a3.12 3.12 0 0 1 -3.1 3.1z"/>
<path class="cls-32" transform="translate(15.62 20.67)" d="m237.5 319.7h-23.3a3.12 3.12 0 0 1 -3.1 -3.1v-20.3a3.12 3.12 0 0 1 3.1 -3.1h23.3a3.12 3.12 0 0 1 3.1 3.1v20.3a3.12 3.12 0 0 1 -3.1 3.1z"/>
<path class="cls-30" transform="translate(15.62 20.67)" d="m274.9 319.7h-23.3a3.12 3.12 0 0 1 -3.1 -3.1v-82.7a3.12 3.12 0 0 1 3.1 -3.1h23.3a3.12 3.12 0 0 1 3.1 3.1v82.7a3.12 3.12 0 0 1 -3.1 3.1z"/>
<path class="cls-30" transform="translate(15.62 20.67)" d="m312.2 319.7h-23.3a3.12 3.12 0 0 1 -3.1 -3.1v-82.7a3.12 3.12 0 0 1 3.1 -3.1h23.3a3.12 3.12 0 0 1 3.1 3.1v82.7a3.12 3.12 0 0 1 -3.1 3.1z"/>
<path class="cls-30" transform="translate(15.62 20.67)" d="m349.6 319.7h-23.3a3.12 3.12 0 0 1 -3.1 -3.1v-82.7a3.12 3.12 0 0 1 3.1 -3.1h23.3a3.12 3.12 0 0 1 3.1 3.1v82.7a3.12 3.12 0 0 1 -3.1 3.1z"/>
<path class="cls-33" transform="translate(15.62 20.67)" d="m274.9 319.7h-23.3a3.12 3.12 0 0 1 -3.1 -3.1v-39a3.12 3.12 0 0 1 3.1 -3.1h23.3a3.12 3.12 0 0 1 3.1 3.1v39a3.12 3.12 0 0 1 -3.1 3.1z"/>
<path class="cls-34" transform="translate(15.62 20.67)" d="m312.2 319.7h-23.3a3.12 3.12 0 0 1 -3.1 -3.1v-14.1a3.12 3.12 0 0 1 3.1 -3.1h23.3a3.12 3.12 0 0 1 3.1 3.1v14.1a3.12 3.12 0 0 1 -3.1 3.1z"/>
<path class="cls-35" transform="translate(15.62 20.67)" d="m349.6 319.7h-23.3a3.12 3.12 0 0 1 -3.1 -3.1v-39a3.12 3.12 0 0 1 3.1 -3.1h23.3a3.12 3.12 0 0 1 3.1 3.1v39a3.12 3.12 0 0 1 -3.1 3.1z"/>
<rect class="cls-30" x="189.32" y="352.77" width="178.9" height="4.7"/>
<rect class="cls-30" x="189.32" y="362.17" width="96.5" height="4.7"/>
<rect class="cls-36" x="189.32" y="229.57" width="37.3" height="4.7"/>
</g>
<g class="cls-28">
<g class="cls-15">
<g class="cls-12">
<path class="cls-13" transform="translate(15.62 20.67)" d="M79.6-6C29.3,1.2-5.3,47.2,14.3,98.2c18.3,47.7,80.6,70.3,124.2,43.2,40.5-25.1,53.2-84.7,25.3-123.6C136.8-19.8,69.1-33.3,38.6,6.7,29,19.4,44.9,38,58.9,33.3c24.6-8.2,47.7-18.8,70.5,1.5,21.4,19,16,55.4-5.5,72.4-22.8,18.1-59.6,7.5-73.4-17.1C35.4,62.9,54.7,17,82.8,5.5,89.9,2.6,87.2-7.1,79.6-6Z"/>
</g>
<path class="cls-16" transform="translate(15.62 20.67)" d="m76.5-9.1c-50.3 7.2-84.9 53.2-65.3 104.2 18.3 47.7 80.6 70.3 124.2 43.2 40.5-25.1 53.2-84.7 25.3-123.6-27-37.6-94.7-51.1-125.2-11.1-9.6 12.6 6.3 31.2 20.3 26.5 24.6-8.2 47.7-18.8 70.5 1.5 21.4 19 16 55.4-5.5 72.4-22.8 18.1-59.6 7.5-73.4-17.1-15.1-27.1 4.2-73 32.3-84.5 7.1-3 4.4-12.6-3.2-11.5z"/>
</g>
</g>
<g class="cls-28">
<g class="cls-12">
<path class="cls-13" transform="translate(15.62 20.67)" d="M255,223.9s7.7-19.4,8.9-17.6-.9,4.5-.5,9.2c0,0,14.2-17.1,15-15.2s-8,13.5-7.8,13.8,10.5-11.9,11.6-10.5-8.6,12.6-8.6,12.6,9.8-9.7,11-8.4-7.8,10.4-7.8,10.4,7.6-7.5,8.7-6.2c.7.8-18.6,24.9-18.1,25.4.4.3-12.4-13.5-12.4-13.5"/>
<path class="cls-13" transform="translate(15.62 20.67)" d="M92.2,458.2c.8,5,9.6,172.3,20,280.9h41.2S133,488.3,137.8,487.9c5.6-.5,52.5,251.2,52.5,251.2h39.3L169.7,450.9l-77.5,7.3Z"/>
<path class="cls-13" transform="translate(15.62 20.67)" d="M256.8,218.8s-34.7,41.6-53.7,59.1-57.5,40.3-57.5,40.3v.1c-9,1.8-15,3.5-19.1,4.6-12.7,3.4-15.5,3.8-24.2,7.3A74.72,74.72,0,0,0,64.4,363c-12,21.4-27.3,55.1-24.9,84.8,2.7,32.1,29.8,22.5,49.5,10.9a11.62,11.62,0,0,1,.1,1.3h84.4V362.6s0-1-.1-2.6l.1.2s30.7-37.2,45.1-51.7c24.6-24.6,52.4-71.4,52.4-71.4l-14.2-18.3ZM77.3,425.8,87,386.3c.6,6.8-2.7,29.7-2.1,36.1Z"/>
<path class="cls-13" transform="translate(15.62 20.67)" d="m114.9 325.7s-5.5 25.6 2.2 21.9 13.5-7.1 13.5-7.1 7.7 9.5 11.4 3.7-3.5-24.6-3.5-24.6z"/>
<path class="cls-13" transform="translate(15.62 20.67)" d="m108.4 268.7l1.8 23.4s-8.8 1.2-6.3 9.2 8.5 4.5 8.5 4.5 1.5 20.6 22.5 14 14-39.1 12-58.7z"/>
<path class="cls-13" transform="translate(15.62 20.67)" d="M110.2,300.7l5.7,30.3a12.09,12.09,0,0,0,23.8-4.3l-3.1-17.3Z"/>
<path class="cls-13" transform="translate(15.62 20.67)" d="M113.3,436.9a9.87,9.87,0,0,1-.9,1.2c-.6.7-1.5,1.8-2.6,3a108.1,108.1,0,0,1-9.5,9.1A115,115,0,0,1,89.7,458c-1.4.9-2.6,1.6-3.4,2s-1.3.7-1.3.6a47.78,47.78,0,0,1,4.5-3.1c2.8-1.9,6.5-4.6,10.5-7.9s7.3-6.5,9.6-8.9a44.1,44.1,0,0,1,3.7-3.8Z"/>
<path class="cls-13" transform="translate(15.62 20.67)" d="m71 435.9c-0.2-0.1 1-2.5 2.6-5.4s3.1-5.1 3.3-5-1 2.5-2.6 5.4a31 31 0 0 1 -3.3 5z"/>
<path class="cls-13" transform="translate(15.62 20.67)" d="M76.7,426.3l2.2-1.1c1.5-.7,3.6-1.7,6-2.9,5.1-2.4,12.1-5.8,19.7-9.7,1.3-.6,2.5-1.3,3.7-1.9l.5-.2.1.5c1.1,7.6,2,14.2,2.7,19,.3,2.3.5,4.2.7,5.7a15.32,15.32,0,0,1,.2,2.1,18.08,18.08,0,0,1-.4-2c-.2-1.4-.6-3.3-.9-5.6-.8-4.8-1.8-11.5-2.9-19l.5.3c-1.2.6-2.4,1.3-3.7,1.9-7.7,3.9-14.7,7.2-19.9,9.5l-6.1,2.6a10,10,0,0,1-2.4.8Z"/>
<path class="cls-13" transform="translate(15.62 20.67)" d="m77.3 425.3c0.1 0.2-1.8 2.1-4.4 4.3s-4.8 3.9-4.9 3.7 1.8-2.1 4.4-4.3 4.7-3.9 4.9-3.7z"/>
<path class="cls-13" transform="translate(15.62 20.67)" d="m133.6 460.3c-0.2 0-1.1-25.9-2.1-57.8s-1.5-57.9-1.3-57.9 1.1 25.9 2.1 57.8 1.5 57.9 1.3 57.9z"/>
<path class="cls-13" transform="translate(15.62 20.67)" d="M109.7,416.3s17-12.2,16.9-10-3.2,3.3-5.4,7.5c0,0,21.2-6.7,20.8-4.7s-14.1,7-14,7.4,15.3-4.3,15.4-2.6-14,6-14,6,13.5-2.9,13.8-1.1-12.1,4.5-12.1,4.5,10.4-2.2,10.7-.5c.2,1-29,10.9-28.9,11.6.1.5-3.2-18.1-3.2-18.1"/>
<path class="cls-13" transform="translate(15.62 20.67)" d="m267.5 241.7c-0.1 0.1-4-3.5-8.7-8.1a105.84 105.84 0 0 1 -8.2 -8.6c0.1-0.1 4 3.5 8.7 8.1s8.4 8.5 8.2 8.6z"/>
<path class="cls-13" transform="translate(15.62 20.67)" d="M133.5,301c.1,0,.2.2.7.4a1.79,1.79,0,0,0,1.8-.7,5,5,0,0,0,.4-3.1c-.1-1.3-.3-2.7-.4-4.2-.3-3-.5-5.6-.6-7.6a13.74,13.74,0,0,1,0-3.2,12.89,12.89,0,0,1,.5,3.1c.2,1.9.5,4.6.8,7.6q.15,2.25.3,4.2a5.06,5.06,0,0,1-.6,3.5,2.08,2.08,0,0,1-2.3.7,1.28,1.28,0,0,1-.6-.7Z"/>
<path class="cls-13" transform="translate(15.62 20.67)" d="M141.1,317.1c.1.1-.8.9-2.5,1.9a16.28,16.28,0,0,1-7.4,2,17.39,17.39,0,0,1-7.5-1.6c-1.8-.9-2.7-1.7-2.6-1.8s1.1.6,2.8,1.3a20,20,0,0,0,7.2,1.4,19.54,19.54,0,0,0,7.2-1.7c1.8-.9,2.8-1.6,2.8-1.5Z"/>
<path class="cls-13" transform="translate(15.62 20.67)" d="M136.2,305.2c.1,0-.2.7-1.2,1.3a5,5,0,0,1-4.1.6,4.55,4.55,0,0,1-3-2.9c-.4-1-.3-1.7-.2-1.7s.2.6.7,1.5a5.67,5.67,0,0,0,2.8,2.4,5.24,5.24,0,0,0,3.6-.3C135.6,305.6,136.1,305.2,136.2,305.2Z"/>
<path class="cls-13" transform="translate(15.62 20.67)" d="m128.6 302.1c0 0.2-0.8 0.4-1.6 1s-1.1 1.3-1.4 1.3-0.1-1.1 0.9-1.9 2.2-0.6 2.1-0.4z"/>
<path class="cls-13" transform="translate(15.62 20.67)" d="M109.5,302.3c0,.1-.5.3-1.4,0a1.71,1.71,0,0,1-1.1-1.1,1.17,1.17,0,0,1,0-1,1.42,1.42,0,0,1,.8-.9,1.33,1.33,0,0,1,1.6.5l-.6.3c-.7-1.7-1.1-2.9-.9-3s.8,1.1,1.6,2.7l-.6.3a.76.76,0,0,0-.7-.1c-.4.1-.5.6-.4,1a1.6,1.6,0,0,0,.7.9c.5.2,1.1.3,1,.4Z"/>
<path class="cls-13" transform="translate(15.62 20.67)" d="M143.4,287.8c-.2,0-.5-.7-.7-1.6s-.2-1.7,0-1.7.5.7.7,1.6S143.6,287.7,143.4,287.8Z"/>
<path class="cls-13" transform="translate(15.62 20.67)" d="M126.8,289.4c-.2.1-.6-.6-.8-1.6s-.3-1.7-.1-1.8.6.6.8,1.6S127,289.4,126.8,289.4Z"/>
<path class="cls-13" transform="translate(15.62 20.67)" d="M108.3,292.6c-2.7-6.1-3.5-12.2-4.2-18.9a20.07,20.07,0,0,1,.4-8.1c.8-2.6,2.5-5.1,5-6.1,3.6-1.5,7.9.1,11.6-1.2a11.87,11.87,0,0,0,4.7-3.6,34.21,34.21,0,0,1,4.2-4.3,7.17,7.17,0,0,1,5.6-1.6,4.18,4.18,0,0,1,3.5,4.2,10.43,10.43,0,0,1,9.5-5.3,10.68,10.68,0,0,1,9,6.1,10.56,10.56,0,0,1-1.4,10.8c-2.2,2.8-6.4,2.9-9.2,5.1-5.9,4.7-15.1,5.7-24.4,3.5-4-.9-8.8.6-9.7,4.7-.3,1.5,0,7.4.1,9a7.41,7.41,0,0,1-.8,4.4c-.8,1.2-2.6,2-3.9,1.3"/>
<path class="cls-13" transform="translate(15.62 20.67)" d="M125.7,281.9c-.2.6-1.1.9-2,1.1s-1.8.4-2.3,0c-.2-.2-.2-.6.1-1.1a3.26,3.26,0,0,1,1.6-1.1,2.69,2.69,0,0,1,2,.2C125.6,281.2,125.8,281.6,125.7,281.9Z"/>
<path class="cls-13" transform="translate(15.62 20.67)" d="M143.9,279c-.3.6-1.3.7-2.3.8s-2.1.1-2.5-.4.6-1.7,2.3-1.9S144.2,278.5,143.9,279Z"/>
<path class="cls-13" transform="translate(15.62 20.67)" d="m106.3 443.6c-0.2 0-1.7-6.3-3.4-14.1s-2.8-14.3-2.6-14.3 1.7 6.3 3.4 14.1 2.8 14.3 2.6 14.3z"/>
<path class="cls-13" transform="translate(15.62 20.67)" d="M105.4,418.1c.1.2-.6.7-1.5,1s-1.7.5-1.8.3.6-.7,1.5-1S105.3,417.9,105.4,418.1Z"/>
<path class="cls-13" transform="translate(15.62 20.67)" d="m160.2 367.3c0 0.2-3.6 1-8.1 1.9s-8.2 1.3-8.2 1.1 3.6-1 8.1-1.8 8.2-1.4 8.2-1.2z"/>
<path class="cls-13" transform="translate(15.62 20.67)" d="M81.2,343.9a1.75,1.75,0,0,1,.5.1c.3.1.8.3,1.4.5a13.72,13.72,0,0,1,4.4,3,21.21,21.21,0,0,1,4.5,6.6,24.52,24.52,0,0,1,1.7,9.6c-.1,7-2.6,13-4.3,17.1-.9,2.1-1.7,3.7-2.3,4.8a8.13,8.13,0,0,1-1,1.7,14.44,14.44,0,0,1,.7-1.8c.5-1.3,1.2-2.9,2.1-4.9,1.6-4.1,3.9-10,4.1-16.9a24.87,24.87,0,0,0-1.6-9.3,19.74,19.74,0,0,0-4.2-6.5,17.3,17.3,0,0,0-6-4Z"/>
<path class="cls-13" transform="translate(15.62 20.67)" d="M131.5,728.5a4.18,4.18,0,0,0-.1-.7c-.1-.5-.1-1.2-.2-2q-.3-2.7-.9-7.8c-.7-6.8-1.7-16.6-2.9-28.7-2.3-24.2-5.2-57.7-7.6-94.8s-4-70.7-4.9-95c-.4-12.2-.7-22-.9-28.8-.1-3.4-.1-6-.2-7.8v-2.7a4.18,4.18,0,0,0,.1.7c0,.5.1,1.2.1,2,.1,1.8.2,4.5.3,7.8.3,6.8.7,16.7,1.1,28.8,1,24.3,2.7,57.9,5.2,95s5.2,70.6,7.4,94.8c1.1,12.1,2,21.9,2.7,28.7.3,3.4.6,6,.7,7.8.1.9.1,1.5.2,2a3.2,3.2,0,0,0-.1.7Z"/>
<path class="cls-13" transform="translate(15.62 20.67)" d="m152.2 726.9c0 0.2-9.1 1.1-20.4 1.9s-20.4 1.4-20.4 1.2 9.1-1.1 20.4-1.9 20.3-1.4 20.4-1.2z"/>
<path class="cls-13" transform="translate(15.62 20.67)" d="M206,730a3.13,3.13,0,0,1-.2-.7c-.1-.5-.2-1.2-.4-2-.4-1.8-.9-4.5-1.6-7.9-1.4-6.8-3.3-16.8-5.5-29-4.6-24.5-10.5-58.5-17.3-95.9s-13.4-71.3-18.6-95.6c-1.3-6.1-2.5-11.6-3.6-16.4s-2-9-2.8-12.4-1.4-6-1.8-7.8c-.2-.9-.3-1.6-.4-2a4.18,4.18,0,0,1-.1-.7,3.13,3.13,0,0,1,.2.7c.1.5.3,1.2.5,2,.4,1.8,1.1,4.4,1.9,7.8s1.8,7.5,2.9,12.4,2.4,10.3,3.7,16.4c5.4,24.4,12.1,58.2,18.8,95.6s12.7,71.4,17.1,95.9c2.2,12.2,4,22.2,5.3,29.1.6,3.4,1.1,6.1,1.5,7.9.2.9.3,1.6.4,2.1v.5Z"/>
<path class="cls-13" transform="translate(15.62 20.67)" d="M229.2,730.4c0,.2-8.9.4-19.9.4s-19.9-.2-19.9-.4,8.9-.4,19.9-.4S229.2,730.2,229.2,730.4Z"/>
<path class="cls-13" transform="translate(15.62 20.67)" d="M105.3,460.9a8,8,0,0,1,.9,3.6,15.19,15.19,0,0,1-2,8.7,15.42,15.42,0,0,1-6.5,6.1,10.86,10.86,0,0,1-3.5,1.1c0-.1,1.3-.5,3.3-1.6a17.25,17.25,0,0,0,6.1-6,16.68,16.68,0,0,0,2.1-8.3c-.1-2.3-.6-3.6-.4-3.6Z"/>
<path class="cls-13" transform="translate(15.62 20.67)" d="M142.6,484.3a1.65,1.65,0,0,1-.7,1.1,3.61,3.61,0,0,1-3.4.8,3,3,0,0,1-2-1.5,6.49,6.49,0,0,1-.8-2.7c-.3-1.9-.6-4-1-6.2-.7-4.4-1.2-8.4-1.6-11.3a23.08,23.08,0,0,1-.4-4.7,29,29,0,0,1,1,4.6c.5,2.9,1.2,6.9,1.8,11.3.3,2.2.6,4.3.9,6.2a6.61,6.61,0,0,0,.7,2.5,2.84,2.84,0,0,0,1.6,1.3,3.76,3.76,0,0,0,3.1-.5,3.23,3.23,0,0,0,.8-.9Z"/>
<path class="cls-13" transform="translate(15.62 20.67)" d="M175.4,476.3q0,.15-.9,0a9.06,9.06,0,0,1-2.5-.4,15.78,15.78,0,0,1-7.2-4.2A15.7,15.7,0,0,1,162,468a11.14,11.14,0,0,1-1.4-3.5,9.06,9.06,0,0,1-.4-2.5v-.9c.1,0,.2,1.3.9,3.3a15.54,15.54,0,0,0,1.5,3.3,17.27,17.27,0,0,0,6.2,6.2,15.54,15.54,0,0,0,3.3,1.5c2,.7,3.3.7,3.3.9Z"/>
<path class="cls-13" transform="translate(15.62 20.67)" d="m119.6 739.1s39.1 6.7 37.2 4.5-6.4-4.5-6.4-4.5z"/>
<path class="cls-13" transform="translate(15.62 20.67)" d="m196 739.1s39.1 6.7 37.2 4.5-6.4-4.5-6.4-4.5z"/>
</g>
<path class="cls-37" transform="translate(15.62 20.67)" d="M248.8,217.6s7.7-19.4,8.9-17.6-.9,4.5-.5,9.2c0,0,14.2-17.1,15-15.2s-8,13.5-7.8,13.8,10.5-11.9,11.6-10.5-8.6,12.6-8.6,12.6,9.8-9.7,11-8.4-7.8,10.4-7.8,10.4,7.6-7.5,8.7-6.2c.7.8-18.6,24.9-18.1,25.4s-12.4-13.5-12.4-13.5"/>
<path class="cls-3" transform="translate(15.62 20.67)" d="M86,452c.8,5,9.6,172.3,20,280.9h41.2s-20.4-250.8-15.6-251.2c5.6-.5,52.5,251.2,52.5,251.2h39.3L163.5,444.7Z"/>
<path class="cls-38" transform="translate(15.62 20.67)" d="M250.6,212.6s-34.7,41.6-53.7,59.1S139.4,312,139.4,312v.1c-9,1.8-15,3.5-19.1,4.6-12.7,3.4-15.5,3.8-24.2,7.3a74.72,74.72,0,0,0-37.9,32.8c-12,21.4-27.3,55.1-24.9,84.8,2.7,32.1,29.8,22.5,49.5,10.9a11.62,11.62,0,0,1,.1,1.3h84.4V356.4s0-1-.1-2.6l.1.2s30.7-37.2,45.1-51.7c24.6-24.6,52.4-71.4,52.4-71.4l-14.2-18.3ZM71,419.6l9.7-39.5c.6,6.8-2.7,29.7-2.1,36.1Z"/>
<path class="cls-39" transform="translate(15.62 20.67)" d="m108.7 319.5s-5.5 25.6 2.2 21.9 13.5-7.1 13.5-7.1 7.7 9.5 11.4 3.7-3.5-24.6-3.5-24.6z"/>
<path class="cls-37" transform="translate(15.62 20.67)" d="m102.2 262.5l1.8 23.4s-8.8 1.2-6.3 9.2 8.5 4.5 8.5 4.5 1.5 20.6 22.5 14 14-39.1 12-58.7z"/>
<path class="cls-37" transform="translate(15.62 20.67)" d="M104,294.4l5.7,30.3a12.09,12.09,0,0,0,23.8-4.3l-3.1-17.3Z"/>
<g class="cls-15">
<path class="cls-3" transform="translate(15.62 20.67)" d="M107,430.7a9.87,9.87,0,0,1-.9,1.2c-.6.7-1.5,1.8-2.6,3A108.1,108.1,0,0,1,94,444a115,115,0,0,1-10.6,7.8c-1.4.9-2.6,1.6-3.4,2s-1.3.7-1.3.6a47.78,47.78,0,0,1,4.5-3.1c2.8-1.9,6.5-4.6,10.5-7.9s7.3-6.5,9.6-8.9,3.6-3.9,3.7-3.8Z"/>
</g>
<g class="cls-15">
<path class="cls-3" transform="translate(15.62 20.67)" d="m64.7 429.7c-0.2-0.1 1-2.5 2.6-5.4s3.1-5.1 3.3-5-1 2.5-2.6 5.4-3.1 5.1-3.3 5z"/>
</g>
<g class="cls-15">
<path class="cls-3" transform="translate(15.62 20.67)" d="M70.5,420.1l2.2-1.1c1.5-.7,3.6-1.7,6-2.9,5.1-2.4,12.1-5.8,19.7-9.7,1.3-.6,2.5-1.3,3.7-1.9l.5-.2.1.5c1.1,7.6,2,14.2,2.7,19,.3,2.3.5,4.2.7,5.7a15.32,15.32,0,0,1,.2,2.1,18.08,18.08,0,0,1-.4-2c-.2-1.4-.6-3.3-.9-5.6-.8-4.8-1.8-11.5-2.9-19l.5.3c-1.2.6-2.4,1.3-3.7,1.9-7.7,3.9-14.7,7.2-19.9,9.5l-6.1,2.6a25.11,25.11,0,0,1-2.4.8Z"/>
</g>
<g class="cls-15">
<path class="cls-3" transform="translate(15.62 20.67)" d="M71,419c.1.2-1.8,2.1-4.4,4.3s-4.8,3.9-4.9,3.7,1.8-2.1,4.4-4.3A31.77,31.77,0,0,1,71,419Z"/>
</g>
<g class="cls-15">
<path class="cls-3" transform="translate(15.62 20.67)" d="m127.4 454.1c-0.2 0-1.1-25.9-2.1-57.8s-1.5-57.9-1.3-57.9 1.1 25.9 2.1 57.8 1.5 57.9 1.3 57.9z"/>
</g>
<path class="cls-37" transform="translate(15.62 20.67)" d="M103.4,410.1s17-12.2,16.9-10-3.2,3.3-5.4,7.5c0,0,21.2-6.7,20.8-4.7s-14.1,7-14,7.4,15.3-4.3,15.4-2.6-14,6-14,6,13.5-2.9,13.8-1.1-12.1,4.5-12.1,4.5,10.4-2.2,10.7-.5c.2,1-29,10.9-28.9,11.6.1.5-3.2-18.1-3.2-18.1"/>
<g class="cls-15">
<path class="cls-3" transform="translate(15.62 20.67)" d="m261.3 235.5c-0.1 0.1-4-3.5-8.7-8.1a105.84 105.84 0 0 1 -8.2 -8.6c0.1-0.1 4 3.5 8.7 8.1s8.4 8.4 8.2 8.6z"/>
</g>
<path class="cls-3" transform="translate(15.62 20.67)" d="M127.3,294.8c.1,0,.2.2.7.4a1.79,1.79,0,0,0,1.8-.7,5,5,0,0,0,.4-3.1c-.1-1.3-.3-2.7-.4-4.2-.3-3-.5-5.6-.6-7.6a13.74,13.74,0,0,1,0-3.2,12.89,12.89,0,0,1,.5,3.1c.2,1.9.5,4.6.8,7.6q.15,2.25.3,4.2a5.06,5.06,0,0,1-.6,3.5,2.08,2.08,0,0,1-2.3.7,1.28,1.28,0,0,1-.6-.7Z"/>
<path class="cls-3" transform="translate(15.62 20.67)" d="M134.9,310.8c.1.1-.8.9-2.5,1.9a16.28,16.28,0,0,1-7.4,2,17.39,17.39,0,0,1-7.5-1.6c-1.8-.9-2.7-1.7-2.6-1.8s1.1.6,2.8,1.3a20,20,0,0,0,7.2,1.4,19.54,19.54,0,0,0,7.2-1.7c1.8-.9,2.7-1.6,2.8-1.5Z"/>
<path class="cls-3" transform="translate(15.62 20.67)" d="M129.9,299c.1,0-.2.7-1.2,1.3a5,5,0,0,1-4.1.6,4.55,4.55,0,0,1-3-2.9c-.4-1-.3-1.7-.2-1.7s.2.6.7,1.5a5.67,5.67,0,0,0,2.8,2.4,5.24,5.24,0,0,0,3.6-.3C129.4,299.4,129.8,298.9,129.9,299Z"/>
<path class="cls-3" transform="translate(15.62 20.67)" d="m122.4 295.9c0 0.2-0.8 0.4-1.6 1s-1.1 1.3-1.4 1.3-0.1-1.1 0.9-1.9 2.1-0.6 2.1-0.4z"/>
<path class="cls-3" transform="translate(15.62 20.67)" d="M103.3,296.1c0,.1-.5.3-1.4,0a1.71,1.71,0,0,1-1.1-1.1,1.17,1.17,0,0,1,0-1,1.42,1.42,0,0,1,.8-.9,1.33,1.33,0,0,1,1.6.5l-.6.3c-.7-1.7-1.1-2.9-.9-3s.8,1.1,1.6,2.7l-.6.3a.76.76,0,0,0-.7-.1c-.4.1-.5.6-.4,1a1.6,1.6,0,0,0,.7.9c.5.2,1,.2,1,.4Z"/>
<path class="cls-3" transform="translate(15.62 20.67)" d="M137.2,281.6c-.2,0-.5-.7-.7-1.6s-.2-1.7,0-1.7.5.7.7,1.6S137.4,281.5,137.2,281.6Z"/>
<path class="cls-3" transform="translate(15.62 20.67)" d="M120.6,283.2c-.2.1-.6-.6-.8-1.6s-.3-1.7-.1-1.8.6.6.8,1.6S120.8,283.2,120.6,283.2Z"/>
<path class="cls-3" transform="translate(15.62 20.67)" d="M102.1,286.4c-2.7-6.1-3.5-12.2-4.2-18.9a20.07,20.07,0,0,1,.4-8.1c.8-2.6,2.5-5.1,5-6.1,3.6-1.5,7.9.1,11.6-1.2a11.87,11.87,0,0,0,4.7-3.6,34.21,34.21,0,0,1,4.2-4.3,7.17,7.17,0,0,1,5.6-1.6,4.18,4.18,0,0,1,3.5,4.2,10.43,10.43,0,0,1,9.5-5.3,10.68,10.68,0,0,1,9,6.1,10.56,10.56,0,0,1-1.4,10.8c-2.2,2.8-6.4,2.9-9.2,5.1-5.9,4.7-15.1,5.7-24.4,3.5-4-.9-8.8.6-9.7,4.7-.3,1.5,0,7.4.1,9a7.41,7.41,0,0,1-.8,4.4c-.8,1.2-2.6,2-3.9,1.3"/>
<path class="cls-3" transform="translate(15.62 20.67)" d="M119.5,275.7c-.2.6-1.1.9-2,1.1s-1.8.4-2.3,0c-.2-.2-.2-.6.1-1.1a3.26,3.26,0,0,1,1.6-1.1,2.63,2.63,0,0,1,2,.2C119.4,275,119.6,275.4,119.5,275.7Z"/>
<path class="cls-3" transform="translate(15.62 20.67)" d="M137.7,272.8c-.3.6-1.3.7-2.3.8s-2.1.1-2.5-.4.6-1.7,2.3-1.9S137.9,272.2,137.7,272.8Z"/>
<g class="cls-15">
<path class="cls-3" transform="translate(15.62 20.67)" d="m100.1 437.4c-0.2 0-1.7-6.3-3.4-14.1s-2.8-14.3-2.6-14.3 1.7 6.3 3.4 14.1 2.8 14.2 2.6 14.3z"/>
</g>
<g class="cls-15">
<path class="cls-3" transform="translate(15.62 20.67)" d="M99.1,411.9c.1.2-.6.7-1.5,1s-1.7.5-1.8.3.6-.7,1.5-1S99.1,411.7,99.1,411.9Z"/>
</g>
<g class="cls-15">
<path class="cls-3" transform="translate(15.62 20.67)" d="m154 361.1c0 0.2-3.6 1-8.1 1.9s-8.2 1.3-8.2 1.1 3.6-1 8.1-1.8 8.1-1.4 8.2-1.2z"/>
</g>
<g class="cls-15">
<path class="cls-3" transform="translate(15.62 20.67)" d="M75,337.6a1.75,1.75,0,0,1,.5.1c.3.1.8.3,1.4.5a13.72,13.72,0,0,1,4.4,3,21.21,21.21,0,0,1,4.5,6.6,24.52,24.52,0,0,1,1.7,9.6c-.1,7-2.6,13-4.3,17.1-.9,2.1-1.7,3.7-2.3,4.8a8.13,8.13,0,0,1-1,1.7,14.44,14.44,0,0,1,.7-1.8c.5-1.3,1.2-2.9,2.1-4.9,1.6-4.1,3.9-10,4.1-16.9a24.87,24.87,0,0,0-1.6-9.3,19.74,19.74,0,0,0-4.2-6.5c-3.2-3.1-6.1-3.8-6-4Z"/>
</g>
<path class="cls-40" transform="translate(15.62 20.67)" d="M125.2,722.2a4.18,4.18,0,0,0-.1-.7c-.1-.5-.1-1.2-.2-2q-.3-2.7-.9-7.8c-.7-6.8-1.7-16.6-2.9-28.7-2.3-24.2-5.2-57.7-7.6-94.8s-4-70.7-4.9-95c-.4-12.2-.7-22-.9-28.8-.1-3.4-.1-6-.2-7.8v-2.7a4.18,4.18,0,0,0,.1.7c0,.5.1,1.2.1,2,.1,1.8.2,4.5.3,7.8.3,6.8.7,16.7,1.1,28.8,1,24.3,2.7,57.9,5.2,95s5.2,70.6,7.4,94.8c1.1,12.1,2,21.9,2.7,28.7.3,3.4.6,6,.7,7.8.1.9.1,1.5.2,2A4.18,4.18,0,0,0,125.2,722.2Z"/>
<path class="cls-40" transform="translate(15.62 20.67)" d="m145.9 720.7c0 0.2-9.1 1.1-20.4 1.9s-20.4 1.4-20.4 1.2 9.1-1.1 20.4-1.9 20.4-1.4 20.4-1.2z"/>
<path class="cls-40" transform="translate(15.62 20.67)" d="M199.8,723.8a3.13,3.13,0,0,1-.2-.7c-.1-.5-.2-1.2-.4-2-.4-1.8-.9-4.5-1.6-7.9-1.4-6.8-3.3-16.8-5.5-29-4.6-24.5-10.5-58.5-17.3-95.9s-13.4-71.3-18.6-95.6c-1.3-6.1-2.5-11.6-3.6-16.4s-2-9-2.8-12.4-1.4-6-1.8-7.8c-.2-.9-.3-1.6-.4-2a4.18,4.18,0,0,1-.1-.7,3.13,3.13,0,0,1,.2.7c.1.5.3,1.2.5,2,.4,1.8,1.1,4.4,1.9,7.8s1.8,7.5,2.9,12.4,2.4,10.3,3.7,16.4c5.4,24.4,12.1,58.2,18.8,95.6s12.7,71.4,17.1,95.9c2.2,12.2,4,22.2,5.3,29.1.6,3.4,1.1,6.1,1.5,7.9.2.9.3,1.6.4,2.1v.5Z"/>
<path class="cls-40" transform="translate(15.62 20.67)" d="M223,724.2c0,.2-8.9.4-19.9.4s-19.9-.2-19.9-.4,8.9-.4,19.9-.4S223,724,223,724.2Z"/>
<path class="cls-40" transform="translate(15.62 20.67)" d="M99.1,454.6a8,8,0,0,1,.9,3.6,15.19,15.19,0,0,1-2,8.7,15.42,15.42,0,0,1-6.5,6.1,10.86,10.86,0,0,1-3.5,1.1c0-.1,1.3-.5,3.3-1.6a17.25,17.25,0,0,0,6.1-6,16.68,16.68,0,0,0,2.1-8.3c-.2-2.2-.6-3.5-.4-3.6Z"/>
<path class="cls-40" transform="translate(15.62 20.67)" d="M136.4,478.1a1.65,1.65,0,0,1-.7,1.1,3.61,3.61,0,0,1-3.4.8,3,3,0,0,1-2-1.5,6.49,6.49,0,0,1-.8-2.7c-.3-1.9-.6-4-1-6.2-.7-4.4-1.2-8.4-1.6-11.3a23.08,23.08,0,0,1-.4-4.7,29,29,0,0,1,1,4.6c.5,2.9,1.2,6.9,1.8,11.3.3,2.2.6,4.3.9,6.2a6.61,6.61,0,0,0,.7,2.5,2.84,2.84,0,0,0,1.6,1.3,3.76,3.76,0,0,0,3.1-.5c.6-.5.7-1,.8-.9Z"/>
<path class="cls-40" transform="translate(15.62 20.67)" d="M169.2,470.1q0,.15-.9,0a9.06,9.06,0,0,1-2.5-.4,15.78,15.78,0,0,1-7.2-4.2,15.7,15.7,0,0,1-2.8-3.7,11.14,11.14,0,0,1-1.4-3.5,9.06,9.06,0,0,1-.4-2.5v-.9c.1,0,.2,1.3.9,3.3a15.54,15.54,0,0,0,1.5,3.3,17.27,17.27,0,0,0,6.2,6.2,15.54,15.54,0,0,0,3.3,1.5c2,.6,3.3.7,3.3.9Z"/>
<path class="cls-41" transform="translate(15.62 20.67)" d="m113.4 732.9s39.1 6.7 37.2 4.5-6.4-4.5-6.4-4.5z"/>
<path class="cls-41" transform="translate(15.62 20.67)" d="m189.8 732.9s39.1 6.7 37.2 4.5-6.4-4.5-6.4-4.5z"/>
</g>
</svg>
