<svg width="1114" height="714" viewBox="0 0 1114 714" fill="none" xmlns="http://www.w3.org/2000/svg">
<path d="M37.207 651.421C36.0352 650.005 34.6924 648.979 33.1787 648.345C31.665 647.71 30.1025 647.393 28.4912 647.393H28.1982V640.142H28.2715C31.2012 640.142 33.9355 640.63 36.4746 641.606C39.0137 642.583 41.2842 644.048 43.2861 646.001L37.207 651.421ZM5.78613 667.754C5.78613 663.555 6.27441 659.844 7.25098 656.621C8.22754 653.35 9.57031 650.591 11.2793 648.345C12.9883 646.05 15.0391 644.243 17.4316 642.925C19.8242 641.606 22.4121 640.776 25.1953 640.435V647.759C23.7305 648.149 22.3633 648.809 21.0938 649.736C19.873 650.664 18.7744 651.958 17.7979 653.618C16.8701 655.229 16.1377 657.207 15.6006 659.551C15.0635 661.846 14.7705 664.58 14.7217 667.754C14.7705 670.928 15.0635 673.711 15.6006 676.104C16.1377 678.496 16.8701 680.571 17.7979 682.329C18.7744 684.038 19.873 685.405 21.0938 686.431C22.3633 687.456 23.7305 688.164 25.1953 688.555V695.22C22.4121 694.878 19.8242 694.048 17.4316 692.729C15.0391 691.362 12.9883 689.531 11.2793 687.236C9.57031 684.941 8.22754 682.183 7.25098 678.96C6.27441 675.688 5.78613 671.953 5.78613 667.754ZM46.0693 667.168V688.042C44.9463 689.458 43.6768 690.63 42.2607 691.558C40.8936 692.437 39.4287 693.169 37.8662 693.755C36.3525 694.341 34.7656 694.756 33.1055 695C31.4941 695.244 29.8828 695.366 28.2715 695.366H28.1982V688.921C28.7842 688.921 29.4922 688.896 30.3223 688.848C31.2012 688.75 32.0801 688.628 32.959 688.481C33.8867 688.286 34.7412 688.042 35.5225 687.749C36.3525 687.456 36.9629 687.041 37.3535 686.504V673.174H28.1982V667.168H46.0693ZM66.9434 666.875C66.9434 670.635 67.1875 673.833 67.6758 676.47C68.1641 679.058 68.8721 681.206 69.7998 682.915C70.7275 684.575 71.8262 685.82 73.0957 686.65C74.4141 687.48 75.8789 687.969 77.4902 688.115V695.366C74.5117 695.171 71.8018 694.463 69.3604 693.242C66.9678 691.973 64.9414 690.19 63.2812 687.896C61.6211 685.552 60.3271 682.695 59.3994 679.326C58.4717 675.957 58.0078 672.1 58.0078 667.754V641.021H66.9434V666.875ZM99.9756 641.021V667.754C99.9756 672.1 99.5117 675.957 98.584 679.326C97.6562 682.695 96.3379 685.552 94.6289 687.896C92.9688 690.19 90.9424 691.973 88.5498 693.242C86.1572 694.463 83.4717 695.171 80.4932 695.366V688.115C82.1045 687.92 83.5449 687.432 84.8145 686.65C86.1328 685.82 87.2559 684.575 88.1836 682.915C89.1113 681.255 89.8193 679.131 90.3076 676.543C90.8447 673.906 91.1133 670.684 91.1133 666.875V641.021H99.9756ZM121.802 695H112.866V641.021H121.802V695ZM135.571 641.021H144.36V695H135.571V641.021ZM151.831 641.021C156.372 641.021 160.352 641.753 163.77 643.218C167.236 644.634 170.093 646.538 172.339 648.931C174.634 651.323 176.343 654.058 177.466 657.134C178.589 660.161 179.15 663.286 179.15 666.509C179.15 670.952 178.662 674.761 177.686 677.935C176.758 681.06 175.562 683.696 174.097 685.845C172.632 687.944 170.972 689.604 169.116 690.825C167.31 692.046 165.552 692.974 163.843 693.608C162.134 694.194 160.571 694.585 159.155 694.78C157.739 694.927 156.689 695 156.006 695H147.363V688.555H153.076C159.033 688.555 163.33 686.65 165.967 682.842C168.604 679.033 169.922 673.516 169.922 666.289C169.922 664.043 169.653 661.821 169.116 659.624C168.579 657.427 167.529 655.449 165.967 653.691C164.453 651.885 162.378 650.444 159.741 649.37C157.104 648.247 153.687 647.686 149.487 647.686H147.363V641.021H151.831ZM190.576 667.754C190.576 663.408 191.089 659.575 192.114 656.255C193.188 652.886 194.653 650.054 196.509 647.759C198.413 645.415 200.635 643.633 203.174 642.412C205.762 641.143 208.569 640.41 211.597 640.215V647.539C209.937 647.734 208.374 648.247 206.909 649.077C205.444 649.907 204.175 651.128 203.101 652.739C202.026 654.351 201.172 656.401 200.537 658.892C199.902 661.382 199.561 664.336 199.512 667.754C199.561 671.221 199.902 674.199 200.537 676.689C201.172 679.131 202.026 681.182 203.101 682.842C204.224 684.502 205.518 685.771 206.982 686.65C208.447 687.48 209.985 687.969 211.597 688.115V695.366C208.618 695.171 205.835 694.463 203.247 693.242C200.659 691.973 198.413 690.19 196.509 687.896C194.653 685.552 193.188 682.695 192.114 679.326C191.089 675.957 190.576 672.1 190.576 667.754ZM214.526 640.215C217.505 640.361 220.264 641.069 222.803 642.339C225.391 643.608 227.612 645.415 229.468 647.759C231.372 650.054 232.861 652.886 233.936 656.255C235.01 659.575 235.547 663.408 235.547 667.754C235.547 672.1 235.01 675.957 233.936 679.326C232.861 682.695 231.372 685.552 229.468 687.896C227.612 690.19 225.415 691.973 222.876 693.242C220.337 694.463 217.554 695.171 214.526 695.366V688.115C216.187 687.92 217.749 687.407 219.214 686.577C220.679 685.698 221.948 684.453 223.022 682.842C224.097 681.182 224.951 679.131 225.586 676.689C226.221 674.199 226.562 671.221 226.611 667.754C226.562 664.287 226.221 661.333 225.586 658.892C224.951 656.401 224.072 654.351 222.949 652.739C221.875 651.079 220.605 649.834 219.141 649.004C217.676 648.125 216.138 647.612 214.526 647.466V640.215ZM267.993 641.021H276.929L291.431 674.346V687.896H289.087L276.929 657.866V695H267.993V641.021ZM308.936 641.021H317.871V695H308.936V657.866L296.851 687.896H294.434V674.492L308.936 641.021ZM375.586 695H366.504L352.515 654.57L338.379 695H329.224L348.12 641.094H356.836L375.586 695ZM357.349 677.861L359.473 683.794H345.483L347.534 677.861H357.349ZM385.62 641.021H395.654L404.443 661.235V678.008L396.68 695H386.499L400.195 668.779L385.62 641.021ZM426.27 641.021L411.694 668.779L425.391 695H415.21L407.446 676.47V659.771L416.235 641.021H426.27ZM447.437 695H438.501V641.021H447.437V695ZM460.913 641.021H469.849L484.351 674.346V687.896H482.007L469.849 657.866V695H460.913V641.021ZM501.855 641.021H510.791V695H501.855V657.866L489.771 687.896H487.354V674.492L501.855 641.021ZM533.35 695H524.414V641.021H533.35V695ZM555.835 641.021V688.335H580.664V695H546.899V641.021H555.835ZM598.682 695H589.746V641.021H598.682V695ZM656.396 695H647.314L633.325 654.57L619.189 695H610.034L628.931 641.094H637.646L656.396 695ZM638.159 677.861L640.283 683.794H626.294L628.345 677.861H638.159ZM697.852 641.021H706.787V695H697.852L679.688 663.066V646.221L697.852 678.228V641.021ZM667.749 695V641.021H676.685V695H667.749ZM719.092 667.754C719.092 663.408 719.604 659.575 720.63 656.255C721.704 652.886 723.169 650.054 725.024 647.759C726.929 645.415 729.15 643.633 731.689 642.412C734.277 641.143 737.085 640.41 740.112 640.215V647.539C738.452 647.734 736.89 648.247 735.425 649.077C733.96 649.907 732.69 651.128 731.616 652.739C730.542 654.351 729.688 656.401 729.053 658.892C728.418 661.382 728.076 664.336 728.027 667.754C728.076 671.221 728.418 674.199 729.053 676.689C729.688 679.131 730.542 681.182 731.616 682.842C732.739 684.502 734.033 685.771 735.498 686.65C736.963 687.48 738.501 687.969 740.112 688.115V695.366C737.134 695.171 734.351 694.463 731.763 693.242C729.175 691.973 726.929 690.19 725.024 687.896C723.169 685.552 721.704 682.695 720.63 679.326C719.604 675.957 719.092 672.1 719.092 667.754ZM743.042 640.215C746.021 640.361 748.779 641.069 751.318 642.339C753.906 643.608 756.128 645.415 757.983 647.759C759.888 650.054 761.377 652.886 762.451 656.255C763.525 659.575 764.062 663.408 764.062 667.754C764.062 672.1 763.525 675.957 762.451 679.326C761.377 682.695 759.888 685.552 757.983 687.896C756.128 690.19 753.931 691.973 751.392 693.242C748.853 694.463 746.069 695.171 743.042 695.366V688.115C744.702 687.92 746.265 687.407 747.729 686.577C749.194 685.698 750.464 684.453 751.538 682.842C752.612 681.182 753.467 679.131 754.102 676.689C754.736 674.199 755.078 671.221 755.127 667.754C755.078 664.287 754.736 661.333 754.102 658.892C753.467 656.401 752.588 654.351 751.465 652.739C750.391 651.079 749.121 649.834 747.656 649.004C746.191 648.125 744.653 647.612 743.042 647.466V640.215ZM796.729 641.021H805.664V695H796.729V641.021ZM828.223 670.684H808.667V664.678H828.223V670.684ZM808.667 688.335H830.493V695H808.667V688.335ZM830.493 641.021V647.686H808.667V641.021H830.493ZM872.607 641.021H881.543V695H872.607L854.443 663.066V646.221L872.607 678.228V641.021ZM842.505 695V641.021H851.44V695H842.505ZM894.8 641.021H903.589V695H894.8V641.021ZM931.421 695H922.119L911.938 675.444C911.792 675.444 911.621 675.469 911.426 675.518C911.279 675.518 911.035 675.518 910.693 675.518C910.352 675.518 909.839 675.518 909.155 675.518C908.521 675.518 907.666 675.518 906.592 675.518V669.072H911.572C912.646 669.072 913.721 668.901 914.795 668.56C915.869 668.169 916.846 667.559 917.725 666.729C918.604 665.898 919.312 664.751 919.849 663.286C920.386 661.772 920.654 659.917 920.654 657.72C920.654 656.841 920.532 655.84 920.288 654.717C920.044 653.545 919.531 652.446 918.75 651.421C918.018 650.347 916.968 649.468 915.601 648.784C914.233 648.052 912.427 647.686 910.181 647.686H906.592V641.021H910.327C912.622 641.021 914.893 641.387 917.139 642.119C919.385 642.852 921.387 643.95 923.145 645.415C924.951 646.88 926.392 648.662 927.466 650.762C928.589 652.812 929.15 655.132 929.15 657.72C929.15 661.626 928.247 664.946 926.44 667.681C924.634 670.415 922.192 672.441 919.116 673.76L931.421 695ZM952.368 695H943.433V641.021H952.368V695ZM963.721 667.754C963.721 663.408 964.233 659.575 965.259 656.255C966.333 652.886 967.798 650.054 969.653 647.759C971.558 645.415 973.804 643.633 976.392 642.412C978.979 641.143 981.763 640.41 984.741 640.215V647.539C983.081 647.734 981.519 648.247 980.054 649.077C978.638 649.907 977.393 651.128 976.318 652.739C975.244 654.351 974.365 656.401 973.682 658.892C973.047 661.382 972.705 664.336 972.656 667.754C972.705 671.221 973.047 674.199 973.682 676.689C974.365 679.131 975.244 681.182 976.318 682.842C977.441 684.502 978.711 685.771 980.127 686.65C981.592 687.48 983.13 687.969 984.741 688.115V695.22H983.423C980.591 694.878 977.954 694.048 975.513 692.729C973.12 691.411 971.045 689.604 969.287 687.31C967.529 685.015 966.162 682.231 965.186 678.96C964.209 675.688 963.721 671.953 963.721 667.754ZM1008.76 667.754C1008.76 671.465 1008.33 674.834 1007.45 677.861C1006.57 680.889 1005.37 683.55 1003.86 685.845C1002.34 688.14 1000.59 690.02 998.584 691.484C996.582 692.949 994.458 693.901 992.212 694.341L1002.32 707.378H992.651L987.744 698.955V688.115C989.404 687.92 990.942 687.407 992.358 686.577C993.823 685.698 995.093 684.453 996.167 682.842C997.241 681.182 998.096 679.131 998.73 676.689C999.414 674.199 999.78 671.221 999.829 667.754C999.78 664.287 999.414 661.333 998.73 658.892C998.096 656.401 997.217 654.351 996.094 652.739C995.02 651.079 993.75 649.834 992.285 649.004C990.869 648.125 989.355 647.612 987.744 647.466V640.215C990.723 640.361 993.481 641.069 996.021 642.339C998.608 643.608 1000.83 645.415 1002.69 647.759C1004.59 650.054 1006.08 652.886 1007.15 656.255C1008.23 659.575 1008.76 663.408 1008.76 667.754ZM1028.91 666.875C1028.91 670.635 1029.15 673.833 1029.64 676.47C1030.13 679.058 1030.83 681.206 1031.76 682.915C1032.69 684.575 1033.79 685.82 1035.06 686.65C1036.38 687.48 1037.84 687.969 1039.45 688.115V695.366C1036.47 695.171 1033.76 694.463 1031.32 693.242C1028.93 691.973 1026.9 690.19 1025.24 687.896C1023.58 685.552 1022.29 682.695 1021.36 679.326C1020.43 675.957 1019.97 672.1 1019.97 667.754V641.021H1028.91V666.875ZM1061.94 641.021V667.754C1061.94 672.1 1061.47 675.957 1060.55 679.326C1059.62 682.695 1058.3 685.552 1056.59 687.896C1054.93 690.19 1052.91 691.973 1050.51 693.242C1048.12 694.463 1045.43 695.171 1042.46 695.366V688.115C1044.07 687.92 1045.51 687.432 1046.78 686.65C1048.1 685.82 1049.22 684.575 1050.15 682.915C1051.07 681.255 1051.78 679.131 1052.27 676.543C1052.81 673.906 1053.08 670.684 1053.08 666.875V641.021H1061.94ZM1074.9 641.021H1083.84V695H1074.9V641.021ZM1106.4 670.684H1086.84V664.678H1106.4V670.684ZM1086.84 688.335H1108.67V695H1086.84V688.335ZM1108.67 641.021V647.686H1086.84V641.021H1108.67Z" fill="white"/>
<path d="M776 9H862.803V533H776V9ZM1081.94 296.951H891.974V238.65H1081.94V296.951ZM891.974 468.3H1104V533H891.974V468.3ZM1104 9V73.7001H891.974V9H1104Z" fill="white"/>
<path d="M314.76 109.679C303.356 95.9098 290.29 85.939 275.56 79.7666C260.83 73.5942 245.625 70.508 229.945 70.508H227.095V0H227.807C256.316 0 282.925 4.74801 307.633 14.244C332.341 23.7401 354.435 37.9841 373.916 56.9761L314.76 109.679ZM9 268.5C9 227.667 13.7515 191.582 23.2545 160.245C32.7576 128.434 45.8242 101.607 62.4545 79.7666C79.0849 57.4509 99.0412 39.8833 122.324 27.0637C145.606 14.244 170.789 6.17241 197.873 2.84881V74.069C183.618 77.8674 170.314 84.2772 157.96 93.2984C146.081 102.32 135.39 114.902 125.887 131.045C116.859 146.714 109.732 165.943 104.505 188.733C99.2788 211.049 96.4279 237.638 95.9527 268.5C96.4279 299.362 99.2788 326.426 104.505 349.691C109.732 372.956 116.859 393.135 125.887 410.228C135.39 426.846 146.081 440.141 157.96 450.111C170.314 460.082 183.618 466.967 197.873 470.765V535.576C170.789 532.252 145.606 524.18 122.324 511.361C99.0412 498.066 79.0849 480.261 62.4545 457.946C45.8242 435.63 32.7576 408.804 23.2545 377.467C13.7515 345.655 9 309.333 9 268.5ZM401 262.802V465.78C390.072 479.549 377.718 490.944 363.938 499.966C350.634 508.512 336.379 515.634 321.175 521.332C306.445 527.029 291.002 531.065 274.847 533.439C259.167 535.813 243.487 537 227.807 537H227.095V474.326C232.796 474.326 239.686 474.089 247.764 473.614C256.316 472.664 264.869 471.477 273.422 470.053C282.45 468.154 290.765 465.78 298.367 462.931C306.445 460.082 312.384 456.046 316.185 450.824V321.203H227.095V262.802H401Z" fill="white"/>
<path d="M386 9H464.839L605.869 333.118V464.902H583.076L460.565 166.999L426.376 91.7748L392.187 21.1099L386 9ZM776.103 9H863V534H776.103V172.84L658.577 464.902H635.072V334.543L776.103 9Z" fill="white"/>
</svg>
