<svg width="940" height="383" viewBox="0 0 940 383" fill="none" xmlns="http://www.w3.org/2000/svg">
<path d="M492.626 283H452.177V141.5C452.177 127.554 449.546 114.463 444.284 102.227C439.023 89.9916 431.788 79.3347 422.58 70.2566C413.504 61.047 402.783 53.8108 390.418 48.5481C378.185 43.1539 365.097 40.4568 351.153 40.4568H329.449H289V0H351.153C364.044 0 376.409 1.71037 388.248 5.1311C400.218 8.42027 411.399 13.0909 421.791 19.143C432.183 25.195 441.654 32.4312 450.204 40.8515C458.754 49.2717 466.186 58.613 472.5 68.8752C478.682 58.613 486.049 49.2717 494.599 40.8515C503.149 32.4312 512.62 25.195 523.012 19.143C533.404 13.0909 544.519 8.42027 556.358 5.1311C568.328 1.71037 580.758 0 593.649 0H656V283H615.551V40.4568H593.649C579.706 40.4568 566.618 43.1539 554.384 48.5481C542.151 53.8108 531.43 61.047 522.223 70.2566C513.146 79.3347 505.911 89.9916 500.518 102.227C495.257 114.463 492.626 127.554 492.626 141.5V283Z" fill="white"/>
<path d="M313 283H130.499C110.858 283 92.9971 279.316 76.9154 271.948C60.8336 264.581 47.0587 254.516 35.5907 241.754C24.2544 228.992 15.4885 213.993 9.29311 196.758C3.0977 179.523 0 161.103 0 141.5C0 122.028 3.0977 103.74 9.29311 86.6367C15.4885 69.4014 24.2544 54.4028 35.5907 41.6409C47.0587 28.7473 60.8336 18.6167 76.9154 11.249C92.9971 3.74965 110.858 0 130.499 0H313V40.4568H130.499C116.526 40.4568 103.938 43.1539 92.7334 48.5481C81.6608 53.8108 72.2358 61.047 64.4586 70.2566C56.8132 79.3347 50.8814 89.9916 46.6633 102.227C42.577 114.463 40.5338 127.554 40.5338 141.5C40.5338 155.446 42.577 168.603 46.6633 180.97C50.8814 193.206 56.8132 203.928 64.4586 213.138C72.2358 222.216 81.6608 229.387 92.7334 234.649C103.938 239.912 116.526 242.543 130.499 242.543H272.466V161.827H100.84V121.37H313V283Z" fill="white"/>
<path d="M675 0H940V40H675V0Z" fill="white"/>
<path d="M698 121H879V162H698V121Z" fill="white"/>
<path d="M675 243H940V283H675V243Z" fill="white"/>
<path d="M126.798 369H107.274C105.144 369 103.21 368.606 101.474 367.818C99.737 367.031 98.251 365.956 97.0156 364.596C95.7803 363.217 94.8224 361.606 94.1421 359.762C93.4797 357.9 93.1484 355.903 93.1484 353.773C93.1484 351.66 93.4797 349.691 94.1421 347.865C94.8224 346.021 95.7803 344.418 97.0156 343.058C98.251 341.697 99.737 340.623 101.474 339.835C103.21 339.047 105.144 338.653 107.274 338.653H126.798V344.186H107.274C105.95 344.186 104.75 344.436 103.676 344.938C102.619 345.439 101.724 346.119 100.99 346.979C100.256 347.838 99.6922 348.849 99.2983 350.013C98.9045 351.177 98.7075 352.43 98.7075 353.773C98.7075 355.134 98.9045 356.405 99.2983 357.586C99.6922 358.75 100.256 359.771 100.99 360.648C101.724 361.507 102.619 362.188 103.676 362.689C104.75 363.19 105.95 363.441 107.274 363.441H121.239V356.458H105.475V350.899H126.798V369ZM166.464 338.761V353.88C166.464 355.975 166.07 357.944 165.282 359.789C164.494 361.615 163.411 363.217 162.033 364.596C160.672 365.956 159.079 367.031 157.252 367.818C155.426 368.606 153.475 369 151.398 369H148.363C146.286 369 144.335 368.606 142.509 367.818C140.683 367.013 139.08 365.93 137.702 364.569C136.341 363.19 135.267 361.588 134.479 359.762C133.691 357.918 133.297 355.957 133.297 353.88V338.761H138.803V353.88C138.803 355.205 139.053 356.458 139.555 357.64C140.056 358.804 140.736 359.824 141.596 360.702C142.473 361.561 143.485 362.241 144.63 362.743C145.794 363.244 147.038 363.495 148.363 363.495H151.398C152.723 363.495 153.967 363.244 155.131 362.743C156.295 362.241 157.306 361.561 158.166 360.702C159.025 359.824 159.705 358.804 160.207 357.64C160.708 356.458 160.958 355.205 160.958 353.88V338.761H166.464ZM179.354 369H173.903V338.761H179.354V369ZM223.156 353.773C223.156 355.903 222.816 357.9 222.135 359.762C221.455 361.606 220.497 363.217 219.262 364.596C218.026 365.956 216.531 367.031 214.777 367.818C213.04 368.606 211.116 369 209.003 369H195.495V363.441H209.003C210.346 363.441 211.545 363.19 212.602 362.689C213.658 362.188 214.553 361.507 215.287 360.648C216.039 359.771 216.612 358.75 217.006 357.586C217.4 356.405 217.597 355.134 217.597 353.773C217.597 352.43 217.4 351.177 217.006 350.013C216.612 348.849 216.039 347.838 215.287 346.979C214.553 346.119 213.658 345.439 212.602 344.938C211.545 344.436 210.346 344.186 209.003 344.186H192.89V369H187.277V338.653H209.003C211.116 338.653 213.04 339.047 214.777 339.835C216.531 340.623 218.026 341.697 219.262 343.058C220.497 344.418 221.455 346.021 222.135 347.865C222.816 349.691 223.156 351.66 223.156 353.773ZM264.943 353.827C264.943 355.921 264.612 357.891 263.949 359.735C263.287 361.561 262.338 363.163 261.103 364.542C259.885 365.921 258.417 367.013 256.698 367.818C254.997 368.606 253.1 369 251.005 369H241.444C239.35 369 237.443 368.606 235.724 367.818C234.005 367.013 232.528 365.921 231.293 364.542C230.076 363.163 229.136 361.561 228.473 359.735C227.811 357.891 227.479 355.921 227.479 353.827C227.479 351.75 227.811 349.798 228.473 347.972C229.136 346.146 230.076 344.553 231.293 343.192C232.528 341.813 234.005 340.73 235.724 339.942C237.443 339.155 239.35 338.761 241.444 338.761H251.005C253.1 338.761 254.997 339.155 256.698 339.942C258.417 340.73 259.885 341.813 261.103 343.192C262.338 344.553 263.287 346.146 263.949 347.972C264.612 349.798 264.943 351.75 264.943 353.827ZM259.438 353.827C259.438 352.502 259.241 351.257 258.847 350.094C258.471 348.912 257.916 347.892 257.182 347.032C256.465 346.155 255.588 345.466 254.55 344.964C253.511 344.445 252.33 344.186 251.005 344.186H241.444C240.119 344.186 238.929 344.445 237.873 344.964C236.834 345.466 235.948 346.155 235.214 347.032C234.498 347.892 233.943 348.912 233.549 350.094C233.173 351.257 232.985 352.502 232.985 353.827C232.985 355.152 233.173 356.405 233.549 357.586C233.943 358.75 234.498 359.771 235.214 360.648C235.948 361.525 236.834 362.223 237.873 362.743C238.929 363.244 240.119 363.495 241.444 363.495H251.005C252.33 363.495 253.511 363.244 254.55 362.743C255.588 362.223 256.465 361.525 257.182 360.648C257.916 359.771 258.471 358.75 258.847 357.586C259.241 356.405 259.438 355.152 259.438 353.827ZM313.82 369H308.314V353.773C308.314 352.448 308.064 351.204 307.562 350.04C307.061 348.876 306.372 347.865 305.495 347.005C304.635 346.128 303.615 345.439 302.433 344.938C301.269 344.436 300.025 344.186 298.7 344.186H297.143V369H291.637V338.761H298.7C299.989 338.761 301.234 338.922 302.433 339.244C303.633 339.549 304.761 339.987 305.817 340.56C306.891 341.115 307.876 341.795 308.771 342.601C309.684 343.407 310.481 344.302 311.161 345.287C311.859 344.302 312.647 343.407 313.524 342.601C314.42 341.795 315.386 341.115 316.425 340.56C317.463 339.987 318.564 339.549 319.728 339.244C320.892 338.922 322.109 338.761 323.38 338.761H330.417V369H324.911V344.186H323.38C322.056 344.186 320.811 344.454 319.647 344.991C318.502 345.528 317.49 346.262 316.613 347.193C315.753 348.124 315.073 349.216 314.572 350.47C314.07 351.723 313.82 353.057 313.82 354.471V369ZM372.982 369H367.477V360.702H346.288V355.089H367.477V344.186H353.163C351.82 344.186 350.558 344.445 349.376 344.964C348.195 345.466 347.165 346.155 346.288 347.032C345.411 347.91 344.713 348.939 344.193 350.121C343.692 351.284 343.441 352.538 343.441 353.88V369H337.882V353.88C337.882 351.768 338.285 349.789 339.091 347.945C339.896 346.101 340.989 344.49 342.367 343.111C343.746 341.733 345.366 340.65 347.228 339.862C349.09 339.056 351.068 338.653 353.163 338.653H372.982V369ZM413.856 369H406.659L395.648 357.667L384.665 369H377.387L392.023 353.934L377.387 338.761H384.665L413.856 369ZM413.856 338.761L400.832 352.269L397.26 348.536L406.659 338.761H413.856ZM423.739 369H418.288V338.761H423.739V369ZM453.844 369H448.339V353.773C448.339 352.448 448.088 351.204 447.587 350.04C447.086 348.876 446.396 347.865 445.519 347.005C444.66 346.128 443.639 345.439 442.458 344.938C441.294 344.436 440.049 344.186 438.725 344.186H437.167V369H431.662V338.761H438.725C440.014 338.761 441.258 338.922 442.458 339.244C443.657 339.549 444.785 339.987 445.841 340.56C446.916 341.115 447.9 341.795 448.795 342.601C449.708 343.407 450.505 344.302 451.186 345.287C451.884 344.302 452.672 343.407 453.549 342.601C454.444 341.795 455.411 341.115 456.449 340.56C457.488 339.987 458.589 339.549 459.752 339.244C460.916 338.922 462.134 338.761 463.405 338.761H470.441V369H464.936V344.186H463.405C462.08 344.186 460.836 344.454 459.672 344.991C458.526 345.528 457.514 346.262 456.637 347.193C455.778 348.124 455.097 349.216 454.596 350.47C454.095 351.723 453.844 353.057 453.844 354.471V369ZM483.842 369H478.39V338.761H483.842V369ZM520.714 369H491.764V338.761H497.27V363.495H520.714V369ZM530.839 369H525.387V338.761H530.839V369ZM573.378 369H567.873V360.702H546.684V355.089H567.873V344.186H553.559C552.216 344.186 550.954 344.445 549.772 344.964C548.59 345.466 547.561 346.155 546.684 347.032C545.806 347.91 545.108 348.939 544.589 350.121C544.088 351.284 543.837 352.538 543.837 353.88V369H538.278V353.88C538.278 351.768 538.681 349.789 539.486 347.945C540.292 346.101 541.384 344.49 542.763 343.111C544.141 341.733 545.762 340.65 547.624 339.862C549.486 339.056 551.464 338.653 553.559 338.653H573.378V369ZM609.096 369C609.096 366.995 608.756 365.052 608.075 363.172C607.413 361.275 606.509 359.493 605.363 357.828C604.235 356.145 602.919 354.579 601.415 353.128C599.929 351.678 598.362 350.389 596.715 349.261C595.068 348.115 593.385 347.158 591.667 346.388C589.966 345.6 588.345 345.018 586.806 344.642V369H581.3V338.761H584.281V338.814C586.251 338.922 588.345 339.361 590.565 340.13C592.803 340.882 595.023 341.912 597.226 343.219C599.446 344.508 601.576 346.048 603.617 347.838C605.676 349.61 607.502 351.571 609.096 353.719V338.761H614.574V369H609.096ZM658.161 353.827C658.161 355.921 657.829 357.891 657.167 359.735C656.505 361.561 655.556 363.163 654.32 364.542C653.103 365.921 651.635 367.013 649.916 367.818C648.215 368.606 646.317 369 644.223 369H634.662C632.567 369 630.661 368.606 628.942 367.818C627.223 367.013 625.746 365.921 624.511 364.542C623.293 363.163 622.353 361.561 621.691 359.735C621.028 357.891 620.697 355.921 620.697 353.827C620.697 351.75 621.028 349.798 621.691 347.972C622.353 346.146 623.293 344.553 624.511 343.192C625.746 341.813 627.223 340.73 628.942 339.942C630.661 339.155 632.567 338.761 634.662 338.761H644.223C646.317 338.761 648.215 339.155 649.916 339.942C651.635 340.73 653.103 341.813 654.32 343.192C655.556 344.553 656.505 346.146 657.167 347.972C657.829 349.798 658.161 351.75 658.161 353.827ZM652.655 353.827C652.655 352.502 652.458 351.257 652.064 350.094C651.688 348.912 651.133 347.892 650.399 347.032C649.683 346.155 648.806 345.466 647.768 344.964C646.729 344.445 645.548 344.186 644.223 344.186H634.662C633.337 344.186 632.147 344.445 631.09 344.964C630.052 345.466 629.166 346.155 628.432 347.032C627.715 347.892 627.16 348.912 626.767 350.094C626.391 351.257 626.203 352.502 626.203 353.827C626.203 355.152 626.391 356.405 626.767 357.586C627.16 358.75 627.715 359.771 628.432 360.648C629.166 361.525 630.052 362.223 631.09 362.743C632.147 363.244 633.337 363.495 634.662 363.495H644.223C645.548 363.495 646.729 363.244 647.768 362.743C648.806 362.223 649.683 361.525 650.399 360.648C651.133 359.771 651.688 358.75 652.064 357.586C652.458 356.405 652.655 355.152 652.655 353.827ZM716.437 369H684.855V338.653H716.437V344.186H690.414V363.441H716.437V369ZM712.919 356.458H693.019V350.899H712.919V356.458ZM750.355 369C750.355 366.995 750.015 365.052 749.335 363.172C748.673 361.275 747.768 359.493 746.623 357.828C745.495 356.145 744.179 354.579 742.675 353.128C741.189 351.678 739.622 350.389 737.975 349.261C736.328 348.115 734.645 347.158 732.926 346.388C731.225 345.6 729.605 345.018 728.065 344.642V369H722.56V338.761H725.541V338.814C727.51 338.922 729.605 339.361 731.825 340.13C734.063 340.882 736.283 341.912 738.485 343.219C740.705 344.508 742.836 346.048 744.877 347.838C746.936 349.61 748.762 351.571 750.355 353.719V338.761H755.834V369H750.355ZM799.367 369H791.874L783.28 360.809H772.135V355.357H787.362C788.132 355.357 788.857 355.205 789.538 354.901C790.218 354.597 790.809 354.194 791.31 353.692C791.811 353.173 792.205 352.573 792.492 351.893C792.778 351.213 792.921 350.497 792.921 349.745C792.921 348.975 792.778 348.259 792.492 347.596C792.205 346.916 791.811 346.325 791.31 345.824C790.809 345.322 790.218 344.929 789.538 344.642C788.857 344.338 788.132 344.186 787.362 344.186H769.262V369H763.756V338.761H787.362C788.884 338.761 790.316 339.056 791.659 339.647C793.002 340.22 794.166 341.008 795.15 342.01C796.153 342.995 796.941 344.159 797.514 345.501C798.087 346.826 798.373 348.241 798.373 349.745C798.373 350.98 798.176 352.171 797.782 353.316C797.388 354.444 796.833 355.483 796.117 356.432C795.419 357.363 794.586 358.168 793.62 358.849C792.653 359.529 791.597 360.03 790.451 360.353L799.367 369ZM810.351 369H804.899V338.761H810.351V369ZM850.956 338.761V353.88C850.956 355.975 850.562 357.944 849.774 359.789C848.987 361.615 847.903 363.217 846.525 364.596C845.164 365.956 843.571 367.031 841.745 367.818C839.918 368.606 837.967 369 835.89 369H832.855C830.779 369 828.827 368.606 827.001 367.818C825.175 367.013 823.572 365.93 822.194 364.569C820.833 363.19 819.759 361.588 818.971 359.762C818.183 357.918 817.79 355.957 817.79 353.88V338.761H823.295V353.88C823.295 355.205 823.546 356.458 824.047 357.64C824.548 358.804 825.229 359.824 826.088 360.702C826.965 361.561 827.977 362.241 829.123 362.743C830.286 363.244 831.531 363.495 832.855 363.495H835.89C837.215 363.495 838.459 363.244 839.623 362.743C840.787 362.241 841.798 361.561 842.658 360.702C843.517 359.824 844.197 358.804 844.699 357.64C845.2 356.458 845.451 355.205 845.451 353.88V338.761H850.956ZM889.977 369H858.395V338.653H889.977V344.186H863.954V363.441H889.977V369ZM886.459 356.458H866.559V350.899H886.459V356.458Z" fill="white"/>
</svg>
