<svg width="940" height="283" viewBox="0 0 940 283" fill="none" xmlns="http://www.w3.org/2000/svg">
<path d="M492.626 283H452.177V141.5C452.177 127.554 449.546 114.463 444.284 102.227C439.023 89.9916 431.788 79.3347 422.58 70.2566C413.504 61.047 402.783 53.8108 390.418 48.5481C378.185 43.1539 365.097 40.4568 351.153 40.4568H329.449H289V0H351.153C364.044 0 376.409 1.71037 388.248 5.1311C400.218 8.42027 411.399 13.0909 421.791 19.143C432.183 25.195 441.654 32.4312 450.204 40.8515C458.754 49.2717 466.186 58.613 472.5 68.8752C478.682 58.613 486.049 49.2717 494.599 40.8515C503.149 32.4312 512.62 25.195 523.012 19.143C533.404 13.0909 544.519 8.42027 556.358 5.1311C568.328 1.71037 580.758 0 593.649 0H656V283H615.551V40.4568H593.649C579.706 40.4568 566.618 43.1539 554.384 48.5481C542.151 53.8108 531.43 61.047 522.223 70.2566C513.146 79.3347 505.911 89.9916 500.518 102.227C495.257 114.463 492.626 127.554 492.626 141.5V283Z" fill="white"/>
<path d="M313 283H130.499C110.858 283 92.9971 279.316 76.9154 271.948C60.8336 264.581 47.0587 254.516 35.5907 241.754C24.2544 228.992 15.4885 213.993 9.29311 196.758C3.0977 179.523 0 161.103 0 141.5C0 122.028 3.0977 103.74 9.29311 86.6367C15.4885 69.4014 24.2544 54.4028 35.5907 41.6409C47.0587 28.7473 60.8336 18.6167 76.9154 11.249C92.9971 3.74965 110.858 0 130.499 0H313V40.4568H130.499C116.526 40.4568 103.938 43.1539 92.7334 48.5481C81.6608 53.8108 72.2358 61.047 64.4586 70.2566C56.8132 79.3347 50.8814 89.9916 46.6633 102.227C42.577 114.463 40.5338 127.554 40.5338 141.5C40.5338 155.446 42.577 168.603 46.6633 180.97C50.8814 193.206 56.8132 203.928 64.4586 213.138C72.2358 222.216 81.6608 229.387 92.7334 234.649C103.938 239.912 116.526 242.543 130.499 242.543H272.466V161.827H100.84V121.37H313V283Z" fill="white"/>
<path d="M675 0H940V40H675V0Z" fill="white"/>
<path d="M698 121H879V162H698V121Z" fill="white"/>
<path d="M675 243H940V283H675V243Z" fill="white"/>
</svg>
