<svg width="1095" height="537" viewBox="0 0 1095 537" fill="none" xmlns="http://www.w3.org/2000/svg">
<path d="M767 9H853.803V533H767V9ZM1072.94 296.951H882.974V238.65H1072.94V296.951ZM882.974 468.3H1095V533H882.974V468.3ZM1095 9V73.7001H882.974V9H1095Z" fill="white"/>
<path d="M305.76 109.679C294.356 95.9098 281.29 85.939 266.56 79.7666C251.83 73.5942 236.625 70.508 220.945 70.508H218.095V0H218.807C247.316 0 273.925 4.74801 298.633 14.244C323.341 23.7401 345.435 37.9841 364.916 56.9761L305.76 109.679ZM0 268.5C0 227.667 4.75152 191.582 14.2545 160.245C23.7576 128.434 36.8242 101.607 53.4545 79.7666C70.0849 57.4509 90.0412 39.8833 113.324 27.0637C136.606 14.244 161.789 6.17241 188.873 2.84881V74.069C174.618 77.8674 161.314 84.2772 148.96 93.2984C137.081 102.32 126.39 114.902 116.887 131.045C107.859 146.714 100.732 165.943 95.5055 188.733C90.2788 211.049 87.4279 237.638 86.9527 268.5C87.4279 299.362 90.2788 326.426 95.5055 349.691C100.732 372.956 107.859 393.135 116.887 410.228C126.39 426.846 137.081 440.141 148.96 450.111C161.314 460.082 174.618 466.967 188.873 470.765V535.576C161.789 532.252 136.606 524.18 113.324 511.361C90.0412 498.066 70.0849 480.261 53.4545 457.946C36.8242 435.63 23.7576 408.804 14.2545 377.467C4.75152 345.655 0 309.333 0 268.5ZM392 262.802V465.78C381.072 479.549 368.718 490.944 354.938 499.966C341.634 508.512 327.379 515.634 312.175 521.332C297.445 527.029 282.002 531.065 265.847 533.439C250.167 535.813 234.487 537 218.807 537H218.095V474.326C223.796 474.326 230.686 474.089 238.764 473.614C247.316 472.664 255.869 471.477 264.422 470.053C273.45 468.154 281.765 465.78 289.367 462.931C297.445 460.082 303.384 456.046 307.185 450.824V321.203H218.095V262.802H392Z" fill="white"/>
<path d="M377 9H455.839L596.869 333.118V464.902H574.076L451.565 166.999L417.376 91.7748L383.187 21.1099L377 9ZM767.103 9H854V534H767.103V172.84L649.577 464.902H626.072V334.543L767.103 9Z" fill="white"/>
</svg>
