<svg width="1005" height="795" viewBox="0 0 1005 795" fill="none" xmlns="http://www.w3.org/2000/svg">
<rect width="1005" height="795" fill="#FFF1E4"/>
<rect width="1005" height="795" fill="url(#paint0_linear)"/>
<path d="M255.513 224.884C234.99 234.421 217.701 249.746 205.77 268.976C193.839 288.206 187.786 310.503 188.355 333.126V333.126L190.276 406.241C190.267 406.278 190.266 406.316 190.273 406.354C190.48 414.171 188.893 421.931 185.633 429.039C182.374 436.146 177.528 442.413 171.469 447.356C191.986 437.831 209.272 422.521 221.206 403.306C233.139 384.091 239.199 361.808 238.641 339.196V339.196L236.738 266C236.738 266 236.738 266 236.741 265.903C236.53 258.087 238.112 250.325 241.366 243.215C244.62 236.105 249.459 229.834 255.513 224.884V224.884Z" fill="#25AC9B"/>
<path d="M171.599 447.328C157.255 454.012 141.686 457.667 125.866 458.063L64.3829 459.686C61.0685 459.815 57.7614 459.285 54.6534 458.126C51.5454 456.967 48.6982 455.204 46.2768 452.937C43.8555 450.67 41.9082 447.945 40.5478 444.919C39.1874 441.894 38.4409 438.629 38.3516 435.314C38.2622 431.998 38.8319 428.697 40.0275 425.603C41.2231 422.509 43.0209 419.683 45.3167 417.289C47.6125 414.895 50.3606 412.981 53.4018 411.657C56.4429 410.332 59.7166 409.625 63.0332 409.575L72.219 409.336L124.596 407.971L190.405 406.229L190.402 406.342C190.606 414.156 189.018 421.913 185.759 429.018C182.499 436.123 177.655 442.386 171.599 447.328V447.328Z" fill="#F04A8A"/>
<path d="M230.474 385.246C219.423 412.67 198.367 434.872 171.566 447.359C177.625 442.416 182.47 436.15 185.73 429.042C188.989 421.934 190.577 414.174 190.369 406.357C198.226 406.151 205.93 404.14 212.884 400.479C219.839 396.818 225.857 391.606 230.474 385.246V385.246Z" fill="#2E3959"/>
<path d="M255.495 224.916C269.809 218.242 285.343 214.581 301.131 214.162L358.903 212.676C362.215 212.547 365.52 213.077 368.626 214.235C371.732 215.393 374.577 217.156 376.996 219.421C379.416 221.686 381.362 224.41 382.722 227.433C384.081 230.455 384.827 233.718 384.916 237.032C385.006 240.345 384.437 243.643 383.242 246.735C382.047 249.827 380.251 252.651 377.957 255.044C375.663 257.436 372.917 259.35 369.878 260.673C366.839 261.997 363.568 262.704 360.254 262.754L351.068 262.993L302.562 264.275L236.738 266.001L236.742 265.839C236.538 258.039 238.121 250.296 241.372 243.202C244.622 236.109 249.453 229.854 255.495 224.916V224.916Z" fill="#287CBC"/>
<path d="M196.621 286.998C207.676 259.582 228.724 237.383 255.513 224.884C249.466 229.826 244.629 236.085 241.373 243.183C238.117 250.282 236.528 258.031 236.727 265.838C228.865 266.046 221.157 268.063 214.202 271.732C207.246 275.402 201.23 280.626 196.621 286.998V286.998Z" fill="#075681"/>
<path d="M321.296 287.298C312.851 308.293 298.457 326.363 279.881 339.288C261.306 352.213 239.36 359.43 216.739 360.052L143.609 361.924L143.512 361.921C135.694 362.121 128.025 364.11 121.096 367.737C114.167 371.364 108.162 376.532 103.542 382.842C111.982 361.848 126.374 343.777 144.946 330.851C163.519 317.926 185.464 310.709 208.084 310.088L281.245 308.217L281.359 308.22C289.171 308.013 296.832 306.02 303.755 302.394C310.678 298.767 316.678 293.603 321.296 287.298V287.298Z" fill="#E94B86"/>
<path d="M188.403 333.127L189.136 360.669L216.678 359.936C223.734 359.747 230.758 358.919 237.664 357.461C238.478 351.348 238.806 345.181 238.646 339.017V339.017L237.879 309.241L208.103 310.007C201.939 310.165 195.797 310.818 189.737 311.958C188.654 318.905 188.198 325.935 188.375 332.964L188.403 333.127Z" fill="#2B3B5C"/>
<path d="M103.725 382.669C97.8031 397.341 94.9718 413.077 95.4081 428.892L97.015 490.375C97.0537 493.697 97.7525 496.979 99.0709 500.029C100.389 503.078 102.301 505.836 104.694 508.14C107.088 510.445 109.916 512.25 113.013 513.452C116.111 514.654 119.417 515.228 122.738 515.14C126.06 515.053 129.331 514.306 132.361 512.943C135.391 511.58 138.12 509.629 140.389 507.202C142.658 504.775 144.422 501.921 145.579 498.806C146.735 495.691 147.26 492.377 147.125 489.057L146.885 479.888L145.501 427.575L143.727 361.765C135.905 361.96 128.232 363.946 121.298 367.57C114.363 371.194 108.352 376.359 103.725 382.669V382.669Z" fill="#ECB004"/>
<path d="M125.466 457.922C132.45 457.739 139.404 456.925 146.241 455.489L145.52 428.093L144.966 407.291L124.148 407.828L96.7524 408.55C95.6798 415.454 95.2305 422.442 95.41 429.427L96.1906 458.702L125.466 457.922Z" fill="#CA2300"/>
<path d="M162.466 320.761C135.668 333.24 114.607 355.429 103.542 382.842C108.162 376.531 114.167 371.364 121.096 367.737C128.026 364.11 135.694 362.12 143.512 361.921C143.296 354.065 144.894 346.265 148.181 339.127C151.468 331.989 156.357 325.704 162.466 320.761V320.761Z" fill="#C62101"/>
<path d="M321.264 287.329C327.181 272.656 330.018 256.922 329.597 241.106L328.012 183.396C327.743 176.817 324.896 170.609 320.086 166.112C315.276 161.615 308.89 159.191 302.308 159.364C295.726 159.537 289.476 162.293 284.909 167.037C280.343 171.78 277.826 178.13 277.902 184.714L278.141 193.9L279.421 242.502L281.247 308.216L281.36 308.22C289.164 308.014 296.818 306.024 303.735 302.403C310.652 298.782 316.648 293.626 321.264 287.329V287.329Z" fill="#FE7702"/>
<path d="M302.53 264.274L327.982 263.594C329.252 256.163 329.793 248.626 329.598 241.09L328.868 213.435L301.214 214.148C293.678 214.348 286.18 215.283 278.826 216.939L279.489 242.407L280.076 264.845L302.53 264.274Z" fill="#295C00"/>
<path d="M262.357 349.377C289.157 336.895 310.221 314.708 321.297 287.297C316.675 293.606 310.67 298.773 303.741 302.399C296.812 306.026 289.145 308.016 281.327 308.218C281.536 316.075 279.933 323.874 276.644 331.011C273.354 338.148 268.466 344.433 262.357 349.377V349.377Z" fill="#B52A8F"/>
<path d="M370.475 361.226C369.867 361.226 369.449 361.454 369.221 361.91C368.993 362.29 368.841 362.822 368.765 363.506H367.397V347.546H368.765C368.917 348.914 369.487 349.598 370.475 349.598H404.105V350.966C402.889 351.042 402.281 351.688 402.281 352.904V371.828C402.281 372.36 402.357 372.816 402.509 373.196C402.661 373.576 403.041 373.766 403.649 373.766H404.219V375.134C393.883 380.606 381.647 383.342 367.511 383.342C362.723 383.342 358.087 382.772 353.603 381.632C349.195 380.416 345.281 378.554 341.861 376.046C338.441 373.538 335.667 370.384 333.539 366.584C331.487 362.708 330.461 358.186 330.461 353.018C330.461 347.85 331.487 343.366 333.539 339.566C335.667 335.69 338.441 332.498 341.861 329.99C345.281 327.406 349.195 325.506 353.603 324.29C358.087 322.998 362.723 322.352 367.511 322.352C369.411 322.352 371.083 322.39 372.527 322.466C373.971 322.542 375.377 322.694 376.745 322.922C378.113 323.15 379.519 323.454 380.963 323.834C382.407 324.138 384.117 324.556 386.093 325.088C387.993 325.62 389.741 326.266 391.337 327.026C392.933 327.71 393.959 328.052 394.415 328.052C395.023 328.052 395.555 327.748 396.011 327.14L397.379 327.596L389.969 342.644L388.601 341.846C388.753 341.39 388.829 340.972 388.829 340.592C388.829 340.06 388.183 339.49 386.891 338.882C385.599 338.198 383.965 337.59 381.989 337.058C380.013 336.526 377.771 336.07 375.263 335.69C372.831 335.31 370.437 335.12 368.081 335.12C365.345 335.12 362.723 335.5 360.215 336.26C357.783 336.944 355.579 338.046 353.603 339.566C351.703 341.086 350.183 342.986 349.043 345.266C347.903 347.47 347.333 350.13 347.333 353.246C347.333 356.286 348.017 358.946 349.385 361.226C350.753 363.43 352.463 365.254 354.515 366.698C356.643 368.142 358.999 369.206 361.583 369.89C364.167 370.574 366.713 370.916 369.221 370.916C372.413 370.916 375.263 370.726 377.771 370.346C380.355 369.966 382.825 369.434 385.181 368.75V361.226H370.475ZM465.742 372.968C467.262 372.968 468.25 372.018 468.706 370.118H470.074V385.052H468.934C468.554 383.988 468.136 383.38 467.68 383.228C467.3 383.076 466.654 383 465.742 383H414.898V381.632C415.734 381.556 416.456 381.404 417.064 381.176C417.748 380.948 418.09 380.416 418.09 379.58V336.26C418.09 335.424 417.748 334.892 417.064 334.664C416.456 334.436 415.734 334.284 414.898 334.208V332.84H466.654C467.11 332.84 467.566 332.688 468.022 332.384C468.478 332.08 468.706 331.396 468.706 330.332H470.074V345.608H468.706C468.706 344.468 468.478 343.746 468.022 343.442C467.566 343.062 467.11 342.872 466.654 342.872H433.366V352.106H454.798C455.254 352.106 455.71 351.954 456.166 351.65C456.622 351.27 456.85 350.548 456.85 349.484H458.218V364.304H456.85C456.85 363.24 456.622 362.556 456.166 362.252C455.71 361.872 455.254 361.682 454.798 361.682H433.366V372.968H465.742ZM543.642 379.58C543.642 380.416 543.946 380.948 544.554 381.176C545.162 381.404 545.922 381.556 546.834 381.632V383H525.744V381.632C526.352 381.632 527.036 381.556 527.796 381.404C528.632 381.252 529.05 380.834 529.05 380.15C529.05 379.466 528.214 378.212 526.542 376.388C524.87 374.488 522.704 372.17 520.044 369.434C517.46 366.698 514.534 363.658 511.266 360.314C507.998 356.894 504.768 353.284 501.576 349.484L501.348 349.712V379.58C501.348 380.416 501.614 380.948 502.146 381.176C502.754 381.404 503.476 381.556 504.312 381.632V383H484.818V381.632C485.578 381.556 486.224 381.404 486.756 381.176C487.364 380.948 487.668 380.416 487.668 379.58V336.26C487.668 335.424 487.364 334.892 486.756 334.664C486.148 334.436 485.426 334.284 484.59 334.208V332.84H511.722V334.208C511.19 334.284 510.658 334.436 510.126 334.664C509.594 334.892 509.328 335.424 509.328 336.26C509.328 336.412 509.936 337.21 511.152 338.654C512.444 340.022 514.078 341.77 516.054 343.898C518.03 346.026 520.234 348.382 522.666 350.966C525.098 353.55 527.53 356.134 529.962 358.718V336.26C529.962 335.424 529.658 334.892 529.05 334.664C528.442 334.436 527.682 334.284 526.77 334.208V332.84H546.834V334.208C545.922 334.284 545.162 334.436 544.554 334.664C543.946 334.892 543.642 335.424 543.642 336.26V379.58ZM588.443 344.24C586.315 344.24 584.301 344.582 582.401 345.266C580.501 345.874 578.829 346.786 577.385 348.002C575.941 349.142 574.801 350.548 573.965 352.22C573.205 353.892 572.825 355.792 572.825 357.92C572.825 360.048 573.205 361.948 573.965 363.62C574.801 365.292 575.941 366.736 577.385 367.952C578.829 369.092 580.501 370.004 582.401 370.688C584.301 371.296 586.315 371.6 588.443 371.6C590.647 371.6 592.661 371.296 594.485 370.688C596.385 370.004 598.057 369.092 599.501 367.952C600.945 366.736 602.047 365.292 602.807 363.62C603.643 361.948 604.061 360.048 604.061 357.92C604.061 355.792 603.643 353.892 602.807 352.22C602.047 350.548 600.945 349.142 599.501 348.002C598.057 346.786 596.385 345.874 594.485 345.266C592.661 344.582 590.647 344.24 588.443 344.24ZM588.443 332.156C592.015 332.156 595.587 332.65 599.159 333.638C602.807 334.626 606.075 336.184 608.963 338.312C611.927 340.364 614.321 343.024 616.145 346.292C617.969 349.56 618.881 353.436 618.881 357.92C618.881 362.48 617.969 366.394 616.145 369.662C614.321 372.854 611.927 375.476 608.963 377.528C606.075 379.58 602.807 381.062 599.159 381.974C595.587 382.886 592.015 383.342 588.443 383.342C584.871 383.342 581.261 382.886 577.613 381.974C574.041 381.062 570.773 379.58 567.809 377.528C564.921 375.476 562.565 372.854 560.741 369.662C558.917 366.394 558.005 362.48 558.005 357.92C558.005 353.436 558.917 349.56 560.741 346.292C562.565 343.024 564.921 340.364 567.809 338.312C570.773 336.184 574.041 334.626 577.613 333.638C581.261 332.65 584.871 332.156 588.443 332.156ZM646.848 379.58C646.848 380.416 647.152 380.948 647.76 381.176C648.368 381.404 649.128 381.556 650.04 381.632V383H632.142V381.632C632.75 381.556 633.32 381.404 633.852 381.176C634.46 380.948 634.764 380.416 634.764 379.58V336.26C634.764 335.424 634.46 334.892 633.852 334.664C633.32 334.436 632.75 334.284 632.142 334.208V332.84H656.88V334.208C656.272 334.284 655.74 334.36 655.284 334.436C654.904 334.512 654.714 334.74 654.714 335.12C654.714 335.424 655.132 336.526 655.968 338.426C656.88 340.326 657.906 342.416 659.046 344.696C660.186 346.976 661.25 349.142 662.238 351.194C663.226 353.17 663.834 354.462 664.062 355.07C664.974 353.246 666 351.27 667.14 349.142C668.356 346.938 669.458 344.886 670.446 342.986C671.51 341.01 672.384 339.3 673.068 337.856C673.752 336.412 674.094 335.5 674.094 335.12C674.094 334.74 673.866 334.512 673.41 334.436C673.03 334.36 672.536 334.284 671.928 334.208V332.84H696.78V334.208C696.248 334.284 695.716 334.436 695.184 334.664C694.652 334.892 694.386 335.424 694.386 336.26V379.58C694.386 380.416 694.652 380.948 695.184 381.176C695.716 381.404 696.248 381.556 696.78 381.632V383H677.742V381.632C678.578 381.556 679.262 381.404 679.794 381.176C680.402 380.948 680.706 380.416 680.706 379.58V347.204H680.478L663.492 380.15L647.076 347.204H646.848V379.58ZM763.434 372.968C764.954 372.968 765.942 372.018 766.398 370.118H767.766V385.052H766.626C766.246 383.988 765.828 383.38 765.372 383.228C764.992 383.076 764.346 383 763.434 383H712.59V381.632C713.426 381.556 714.148 381.404 714.756 381.176C715.44 380.948 715.782 380.416 715.782 379.58V336.26C715.782 335.424 715.44 334.892 714.756 334.664C714.148 334.436 713.426 334.284 712.59 334.208V332.84H764.346C764.802 332.84 765.258 332.688 765.714 332.384C766.17 332.08 766.398 331.396 766.398 330.332H767.766V345.608H766.398C766.398 344.468 766.17 343.746 765.714 343.442C765.258 343.062 764.802 342.872 764.346 342.872H731.058V352.106H752.49C752.946 352.106 753.402 351.954 753.858 351.65C754.314 351.27 754.542 350.548 754.542 349.484H755.91V364.304H754.542C754.542 363.24 754.314 362.556 753.858 362.252C753.402 361.872 752.946 361.682 752.49 361.682H731.058V372.968H763.434ZM171.244 499.632C172.688 499.48 173.562 499.252 173.866 498.948C174.246 498.568 174.436 498.112 174.436 497.58V454.944H154.828C154.22 454.944 153.764 455.172 153.46 455.628C153.156 456.008 152.928 456.844 152.776 458.136H151.408V437.844H152.776C152.928 439.136 153.156 440.01 153.46 440.466C153.764 440.846 154.22 441.036 154.828 441.036H211.144C211.752 441.036 212.208 440.846 212.512 440.466C212.816 440.01 213.044 439.136 213.196 437.844H214.564V458.136H213.196C213.044 456.844 212.816 456.008 212.512 455.628C212.208 455.172 211.752 454.944 211.144 454.944H191.536V497.58C191.536 498.112 191.688 498.568 191.992 498.948C192.372 499.252 193.284 499.48 194.728 499.632V501H171.244V499.632ZM275.705 490.968C277.225 490.968 278.213 490.018 278.669 488.118H280.037V503.052H278.897C278.517 501.988 278.099 501.38 277.643 501.228C277.263 501.076 276.617 501 275.705 501H224.861V499.632C225.697 499.556 226.419 499.404 227.027 499.176C227.711 498.948 228.053 498.416 228.053 497.58V454.26C228.053 453.424 227.711 452.892 227.027 452.664C226.419 452.436 225.697 452.284 224.861 452.208V450.84H276.617C277.073 450.84 277.529 450.688 277.985 450.384C278.441 450.08 278.669 449.396 278.669 448.332H280.037V463.608H278.669C278.669 462.468 278.441 461.746 277.985 461.442C277.529 461.062 277.073 460.872 276.617 460.872H243.329V470.106H264.761C265.217 470.106 265.673 469.954 266.129 469.65C266.585 469.27 266.813 468.548 266.813 467.484H268.181V482.304H266.813C266.813 481.24 266.585 480.556 266.129 480.252C265.673 479.872 265.217 479.682 264.761 479.682H243.329V490.968H275.705ZM342.091 470.106L340.495 469.308C340.571 469.004 340.647 468.7 340.723 468.396C340.875 468.092 340.951 467.75 340.951 467.37C340.951 466.914 340.457 466.382 339.469 465.774C338.557 465.166 337.341 464.634 335.821 464.178C334.377 463.646 332.705 463.19 330.805 462.81C328.981 462.43 327.119 462.24 325.219 462.24C323.091 462.24 320.925 462.506 318.721 463.038C316.517 463.57 314.541 464.406 312.793 465.546C311.045 466.61 309.601 468.016 308.461 469.764C307.321 471.436 306.751 473.488 306.751 475.92C306.751 478.276 307.321 480.328 308.461 482.076C309.601 483.824 311.045 485.268 312.793 486.408C314.541 487.472 316.517 488.27 318.721 488.802C320.925 489.334 323.091 489.6 325.219 489.6C327.499 489.6 329.627 489.334 331.603 488.802C333.655 488.194 335.441 487.51 336.961 486.75C338.557 485.914 339.773 485.116 340.609 484.356C341.521 483.52 341.977 482.912 341.977 482.532V481.506C341.977 481.05 341.939 480.708 341.863 480.48L343.117 479.682L353.947 495.3L352.579 496.098C351.895 495.262 351.287 494.844 350.755 494.844C350.451 494.844 349.615 495.186 348.247 495.87C346.955 496.554 345.207 497.352 343.003 498.264C340.799 499.1 338.177 499.822 335.137 500.43C332.173 501.038 328.867 501.342 325.219 501.342C321.039 501.342 316.935 500.924 312.907 500.088C308.955 499.252 305.421 497.846 302.305 495.87C299.189 493.818 296.681 491.158 294.781 487.89C292.881 484.622 291.931 480.632 291.931 475.92C291.931 471.284 292.881 467.332 294.781 464.064C296.681 460.796 299.189 458.136 302.305 456.084C305.421 454.032 308.955 452.55 312.907 451.638C316.935 450.65 321.039 450.156 325.219 450.156C327.727 450.156 330.159 450.384 332.515 450.84C334.871 451.22 337.037 451.638 339.013 452.094C340.989 452.55 342.699 453.006 344.143 453.462C345.587 453.842 346.613 454.032 347.221 454.032C347.601 454.032 347.943 453.918 348.247 453.69C348.551 453.462 348.779 453.234 348.931 453.006L350.299 453.462L342.091 470.106ZM382.712 497.58C382.712 498.416 383.016 498.948 383.624 499.176C384.232 499.404 384.992 499.556 385.904 499.632V501H364.244V499.632C365.156 499.556 365.916 499.404 366.524 499.176C367.132 498.948 367.436 498.416 367.436 497.58V454.26C367.436 453.424 367.132 452.892 366.524 452.664C365.916 452.436 365.156 452.284 364.244 452.208V450.84H385.904V452.208C384.992 452.284 384.232 452.436 383.624 452.664C383.016 452.892 382.712 453.424 382.712 454.26V468.624H407.906V454.26C407.906 453.424 407.602 452.892 406.994 452.664C406.386 452.436 405.626 452.284 404.714 452.208V450.84H426.374V452.208C425.462 452.284 424.702 452.436 424.094 452.664C423.486 452.892 423.182 453.424 423.182 454.26V497.58C423.182 498.416 423.486 498.948 424.094 499.176C424.702 499.404 425.462 499.556 426.374 499.632V501H404.714V499.632C405.626 499.556 406.386 499.404 406.994 499.176C407.602 498.948 407.906 498.416 407.906 497.58V480.252H382.712V497.58ZM499.333 497.58C499.333 498.416 499.637 498.948 500.245 499.176C500.853 499.404 501.613 499.556 502.525 499.632V501H481.435V499.632C482.043 499.632 482.727 499.556 483.487 499.404C484.323 499.252 484.741 498.834 484.741 498.15C484.741 497.466 483.905 496.212 482.233 494.388C480.561 492.488 478.395 490.17 475.735 487.434C473.151 484.698 470.225 481.658 466.957 478.314C463.689 474.894 460.459 471.284 457.267 467.484L457.039 467.712V497.58C457.039 498.416 457.305 498.948 457.837 499.176C458.445 499.404 459.167 499.556 460.003 499.632V501H440.509V499.632C441.269 499.556 441.915 499.404 442.447 499.176C443.055 498.948 443.359 498.416 443.359 497.58V454.26C443.359 453.424 443.055 452.892 442.447 452.664C441.839 452.436 441.117 452.284 440.281 452.208V450.84H467.413V452.208C466.881 452.284 466.349 452.436 465.817 452.664C465.285 452.892 465.019 453.424 465.019 454.26C465.019 454.412 465.627 455.21 466.843 456.654C468.135 458.022 469.769 459.77 471.745 461.898C473.721 464.026 475.925 466.382 478.357 468.966C480.789 471.55 483.221 474.134 485.653 476.718V454.26C485.653 453.424 485.349 452.892 484.741 452.664C484.133 452.436 483.373 452.284 482.461 452.208V450.84H502.525V452.208C501.613 452.284 500.853 452.436 500.245 452.664C499.637 452.892 499.333 453.424 499.333 454.26V497.58ZM544.134 462.24C542.006 462.24 539.992 462.582 538.092 463.266C536.192 463.874 534.52 464.786 533.076 466.002C531.632 467.142 530.492 468.548 529.656 470.22C528.896 471.892 528.516 473.792 528.516 475.92C528.516 478.048 528.896 479.948 529.656 481.62C530.492 483.292 531.632 484.736 533.076 485.952C534.52 487.092 536.192 488.004 538.092 488.688C539.992 489.296 542.006 489.6 544.134 489.6C546.338 489.6 548.352 489.296 550.176 488.688C552.076 488.004 553.748 487.092 555.192 485.952C556.636 484.736 557.738 483.292 558.498 481.62C559.334 479.948 559.752 478.048 559.752 475.92C559.752 473.792 559.334 471.892 558.498 470.22C557.738 468.548 556.636 467.142 555.192 466.002C553.748 464.786 552.076 463.874 550.176 463.266C548.352 462.582 546.338 462.24 544.134 462.24ZM544.134 450.156C547.706 450.156 551.278 450.65 554.85 451.638C558.498 452.626 561.766 454.184 564.654 456.312C567.618 458.364 570.012 461.024 571.836 464.292C573.66 467.56 574.572 471.436 574.572 475.92C574.572 480.48 573.66 484.394 571.836 487.662C570.012 490.854 567.618 493.476 564.654 495.528C561.766 497.58 558.498 499.062 554.85 499.974C551.278 500.886 547.706 501.342 544.134 501.342C540.562 501.342 536.952 500.886 533.304 499.974C529.732 499.062 526.464 497.58 523.5 495.528C520.612 493.476 518.256 490.854 516.432 487.662C514.608 484.394 513.696 480.48 513.696 475.92C513.696 471.436 514.608 467.56 516.432 464.292C518.256 461.024 520.612 458.364 523.5 456.312C526.464 454.184 529.732 452.626 533.304 451.638C536.952 450.65 540.562 450.156 544.134 450.156ZM588.86 454.26C588.86 453.424 588.556 452.892 587.948 452.664C587.34 452.436 586.618 452.284 585.782 452.208V450.84H607.1V452.208C606.264 452.284 605.542 452.436 604.934 452.664C604.402 452.892 604.136 453.424 604.136 454.26V489.372H635.372C635.828 489.372 636.284 489.22 636.74 488.916C637.196 488.536 637.424 487.738 637.424 486.522H638.792V503.508H637.424C637.424 502.292 637.196 501.57 636.74 501.342C636.284 501.114 635.828 501 635.372 501H585.782V499.632C586.618 499.556 587.34 499.404 587.948 499.176C588.556 498.948 588.86 498.416 588.86 497.58V454.26ZM677.171 462.24C675.043 462.24 673.029 462.582 671.129 463.266C669.229 463.874 667.557 464.786 666.113 466.002C664.669 467.142 663.529 468.548 662.693 470.22C661.933 471.892 661.553 473.792 661.553 475.92C661.553 478.048 661.933 479.948 662.693 481.62C663.529 483.292 664.669 484.736 666.113 485.952C667.557 487.092 669.229 488.004 671.129 488.688C673.029 489.296 675.043 489.6 677.171 489.6C679.375 489.6 681.389 489.296 683.213 488.688C685.113 488.004 686.785 487.092 688.229 485.952C689.673 484.736 690.775 483.292 691.535 481.62C692.371 479.948 692.789 478.048 692.789 475.92C692.789 473.792 692.371 471.892 691.535 470.22C690.775 468.548 689.673 467.142 688.229 466.002C686.785 464.786 685.113 463.874 683.213 463.266C681.389 462.582 679.375 462.24 677.171 462.24ZM677.171 450.156C680.743 450.156 684.315 450.65 687.887 451.638C691.535 452.626 694.803 454.184 697.691 456.312C700.655 458.364 703.049 461.024 704.873 464.292C706.697 467.56 707.609 471.436 707.609 475.92C707.609 480.48 706.697 484.394 704.873 487.662C703.049 490.854 700.655 493.476 697.691 495.528C694.803 497.58 691.535 499.062 687.887 499.974C684.315 500.886 680.743 501.342 677.171 501.342C673.599 501.342 669.989 500.886 666.341 499.974C662.769 499.062 659.501 497.58 656.537 495.528C653.649 493.476 651.293 490.854 649.469 487.662C647.645 484.394 646.733 480.48 646.733 475.92C646.733 471.436 647.645 467.56 649.469 464.292C651.293 461.024 653.649 458.364 656.537 456.312C659.501 454.184 662.769 452.626 666.341 451.638C669.989 450.65 673.599 450.156 677.171 450.156ZM774.337 489.258C774.337 490.018 774.527 490.702 774.907 491.31C775.287 491.918 775.819 492.222 776.503 492.222H777.529V493.59C775.705 494.502 773.615 495.452 771.259 496.44C768.903 497.352 766.357 498.188 763.621 498.948C760.885 499.708 758.073 500.316 755.185 500.772C752.297 501.152 749.409 501.342 746.521 501.342C742.113 501.342 738.047 500.886 734.323 499.974C730.599 499.062 727.407 497.58 724.747 495.528C722.163 493.4 720.111 490.74 718.591 487.548C717.147 484.28 716.425 480.404 716.425 475.92C716.425 471.436 717.261 467.598 718.933 464.406C720.605 461.138 722.847 458.478 725.659 456.426C728.471 454.298 731.663 452.74 735.235 451.752C738.883 450.688 742.645 450.156 746.521 450.156C749.409 450.156 752.031 450.346 754.387 450.726C756.819 451.03 758.947 451.41 760.771 451.866C762.595 452.322 764.077 452.74 765.217 453.12C766.433 453.424 767.231 453.576 767.611 453.576C768.219 453.576 768.599 453.462 768.751 453.234C768.979 453.006 769.245 452.74 769.549 452.436L770.917 452.664L764.989 467.712L763.621 467.028V466.23C763.621 465.546 763.089 464.9 762.025 464.292C761.037 463.684 759.783 463.152 758.263 462.696C756.743 462.164 755.109 461.784 753.361 461.556C751.689 461.252 750.169 461.1 748.801 461.1C746.445 461.1 744.203 461.366 742.075 461.898C739.947 462.43 738.085 463.304 736.489 464.52C734.969 465.736 733.753 467.294 732.841 469.194C731.929 471.018 731.473 473.26 731.473 475.92C731.473 478.656 731.929 481.012 732.841 482.988C733.753 484.888 735.007 486.484 736.603 487.776C738.199 488.992 740.061 489.904 742.189 490.512C744.317 491.12 746.635 491.424 749.143 491.424C751.043 491.424 752.905 491.31 754.729 491.082C756.553 490.778 758.377 490.322 760.201 489.714V482.304H750.625C749.713 482.304 749.143 482.646 748.915 483.33C748.687 484.014 748.573 484.584 748.573 485.04H747.205V470.904H748.573C748.573 471.36 748.687 471.93 748.915 472.614C749.143 473.298 749.713 473.64 750.625 473.64H774.337V489.258ZM812.108 452.208C810.968 452.284 810.056 452.436 809.372 452.664C808.764 452.892 808.46 453.424 808.46 454.26V497.58C808.46 498.416 808.764 498.948 809.372 499.176C810.056 499.404 810.968 499.556 812.108 499.632V501H789.536V499.632C790.676 499.556 791.55 499.404 792.158 499.176C792.842 498.948 793.184 498.416 793.184 497.58V454.26C793.184 453.424 792.842 452.892 792.158 452.664C791.55 452.436 790.676 452.284 789.536 452.208V450.84H812.108V452.208ZM877.545 490.968C879.065 490.968 880.053 490.018 880.509 488.118H881.877V503.052H880.737C880.357 501.988 879.939 501.38 879.483 501.228C879.103 501.076 878.457 501 877.545 501H826.701V499.632C827.537 499.556 828.259 499.404 828.867 499.176C829.551 498.948 829.893 498.416 829.893 497.58V454.26C829.893 453.424 829.551 452.892 828.867 452.664C828.259 452.436 827.537 452.284 826.701 452.208V450.84H878.457C878.913 450.84 879.369 450.688 879.825 450.384C880.281 450.08 880.509 449.396 880.509 448.332H881.877V463.608H880.509C880.509 462.468 880.281 461.746 879.825 461.442C879.369 461.062 878.913 460.872 878.457 460.872H845.169V470.106H866.601C867.057 470.106 867.513 469.954 867.969 469.65C868.425 469.27 868.653 468.548 868.653 467.484H870.021V482.304H868.653C868.653 481.24 868.425 480.556 867.969 480.252C867.513 479.872 867.057 479.682 866.601 479.682H845.169V490.968H877.545ZM899.926 484.242C899.926 484.394 899.888 484.584 899.812 484.812C899.812 484.964 899.812 485.192 899.812 485.496C899.812 486.256 900.534 486.978 901.978 487.662C903.422 488.346 905.246 488.992 907.45 489.6C909.73 490.132 912.162 490.588 914.746 490.968C917.406 491.272 919.876 491.424 922.156 491.424C922.84 491.424 923.752 491.386 924.892 491.31C926.108 491.234 927.286 491.044 928.426 490.74C929.566 490.36 930.516 489.866 931.276 489.258C932.112 488.574 932.53 487.662 932.53 486.522C932.53 485.002 931.618 483.938 929.794 483.33C927.97 482.646 925.652 482.152 922.84 481.848C920.104 481.468 917.102 481.088 913.834 480.708C910.642 480.328 907.64 479.682 904.828 478.77C902.092 477.782 899.812 476.414 897.988 474.666C896.164 472.842 895.252 470.334 895.252 467.142C895.252 465.394 895.708 463.532 896.62 461.556C897.532 459.504 898.976 457.642 900.952 455.97C902.928 454.298 905.512 452.93 908.704 451.866C911.972 450.726 915.924 450.156 920.56 450.156C923.296 450.156 925.88 450.308 928.312 450.612C930.82 450.916 933.062 451.258 935.038 451.638C937.09 452.018 938.8 452.36 940.168 452.664C941.612 452.968 942.638 453.12 943.246 453.12C943.854 453.12 944.348 452.968 944.728 452.664C945.108 452.284 945.45 451.98 945.754 451.752L947.008 452.208L940.168 466.572L938.686 465.888C938.686 465.736 938.686 465.546 938.686 465.318C938.762 465.09 938.8 464.862 938.8 464.634C938.8 464.33 938.344 463.95 937.432 463.494C936.52 463.038 935.304 462.582 933.784 462.126C932.34 461.67 930.668 461.29 928.768 460.986C926.944 460.606 925.044 460.416 923.068 460.416C922.384 460.416 921.32 460.454 919.876 460.53C918.432 460.53 916.988 460.72 915.544 461.1C914.1 461.404 912.808 461.898 911.668 462.582C910.604 463.19 910.072 464.14 910.072 465.432C910.072 466.8 910.984 467.788 912.808 468.396C914.632 468.928 916.912 469.384 919.648 469.764C922.46 470.068 925.462 470.448 928.654 470.904C931.922 471.284 934.924 471.968 937.66 472.956C940.472 473.944 942.79 475.388 944.614 477.288C946.438 479.112 947.35 481.696 947.35 485.04C947.35 487.244 946.856 489.372 945.868 491.424C944.88 493.4 943.36 495.148 941.308 496.668C939.256 498.188 936.634 499.366 933.442 500.202C930.326 500.962 926.602 501.342 922.27 501.342C919.534 501.342 916.76 501.19 913.948 500.886C911.136 500.506 908.552 500.088 906.196 499.632C903.84 499.1 901.864 498.644 900.268 498.264C898.748 497.808 897.874 497.58 897.646 497.58C897.114 497.58 896.62 497.77 896.164 498.15C895.784 498.454 895.404 498.796 895.024 499.176L893.77 498.834L898.444 483.558L899.926 484.242Z" fill="black"/>
<path d="M324.58 590.032V602H320.548V571.43H331.823C335.169 571.43 337.786 572.284 339.676 573.991C341.579 575.699 342.531 577.959 342.531 580.773C342.531 583.74 341.6 586.029 339.739 587.639C337.891 589.234 335.239 590.032 331.781 590.032H324.58ZM324.58 586.736H331.823C333.979 586.736 335.631 586.232 336.778 585.224C337.926 584.202 338.5 582.733 338.5 580.815C338.5 578.995 337.926 577.54 336.778 576.448C335.631 575.356 334.056 574.789 332.054 574.747H324.58V586.736ZM356.2 602.42C353.12 602.42 350.615 601.412 348.683 599.396C346.751 597.367 345.786 594.658 345.786 591.271V590.557C345.786 588.304 346.213 586.295 347.066 584.531C347.934 582.754 349.138 581.368 350.678 580.374C352.231 579.366 353.911 578.862 355.717 578.862C358.67 578.862 360.966 579.835 362.604 581.781C364.241 583.726 365.06 586.512 365.06 590.137V591.754H349.67C349.726 593.993 350.377 595.806 351.623 597.192C352.882 598.564 354.478 599.25 356.41 599.25C357.781 599.25 358.943 598.97 359.895 598.41C360.847 597.85 361.68 597.108 362.394 596.184L364.766 598.032C362.862 600.957 360.007 602.42 356.2 602.42ZM355.717 582.054C354.149 582.054 352.833 582.628 351.77 583.775C350.706 584.909 350.048 586.505 349.796 588.562H361.176V588.269C361.064 586.295 360.532 584.769 359.58 583.691C358.628 582.6 357.34 582.054 355.717 582.054ZM380.555 582.768C379.967 582.67 379.33 582.621 378.645 582.621C376.097 582.621 374.368 583.705 373.458 585.875V602H369.574V579.282H373.354L373.417 581.907C374.69 579.877 376.496 578.862 378.833 578.862C379.589 578.862 380.163 578.96 380.555 579.156V582.768ZM397.373 595.974C397.373 594.924 396.974 594.112 396.176 593.539C395.392 592.951 394.014 592.447 392.04 592.027C390.08 591.607 388.52 591.103 387.358 590.515C386.21 589.927 385.356 589.227 384.796 588.416C384.25 587.604 383.978 586.638 383.978 585.518C383.978 583.656 384.761 582.082 386.329 580.794C387.911 579.506 389.926 578.862 392.376 578.862C394.951 578.862 397.037 579.527 398.633 580.857C400.243 582.187 401.047 583.887 401.047 585.959H397.142C397.142 584.895 396.687 583.978 395.777 583.208C394.882 582.439 393.748 582.054 392.376 582.054C390.962 582.054 389.856 582.362 389.059 582.978C388.261 583.593 387.862 584.398 387.862 585.392C387.862 586.33 388.233 587.037 388.975 587.513C389.716 587.989 391.053 588.444 392.985 588.877C394.931 589.311 396.505 589.829 397.709 590.431C398.913 591.033 399.802 591.761 400.375 592.615C400.963 593.455 401.257 594.483 401.257 595.701C401.257 597.731 400.445 599.361 398.822 600.593C397.198 601.811 395.091 602.42 392.502 602.42C390.682 602.42 389.073 602.098 387.673 601.454C386.273 600.81 385.174 599.914 384.376 598.767C383.593 597.605 383.201 596.352 383.201 595.008H387.085C387.155 596.31 387.673 597.346 388.639 598.116C389.618 598.872 390.906 599.25 392.502 599.25C393.972 599.25 395.147 598.956 396.029 598.368C396.925 597.766 397.373 596.968 397.373 595.974ZM405.289 590.431C405.289 588.206 405.722 586.204 406.59 584.426C407.472 582.649 408.69 581.277 410.244 580.311C411.811 579.345 413.596 578.862 415.598 578.862C418.691 578.862 421.19 579.933 423.093 582.075C425.011 584.216 425.97 587.065 425.97 590.62V590.893C425.97 593.105 425.543 595.092 424.689 596.856C423.849 598.606 422.638 599.97 421.057 600.95C419.489 601.93 417.683 602.42 415.64 602.42C412.56 602.42 410.062 601.349 408.144 599.208C406.24 597.066 405.289 594.231 405.289 590.704V590.431ZM409.194 590.893C409.194 593.413 409.775 595.435 410.937 596.961C412.112 598.487 413.68 599.25 415.64 599.25C417.613 599.25 419.181 598.48 420.343 596.94C421.505 595.386 422.085 593.217 422.085 590.431C422.085 587.94 421.491 585.924 420.301 584.384C419.125 582.831 417.557 582.054 415.598 582.054C413.68 582.054 412.133 582.817 410.958 584.342C409.782 585.868 409.194 588.052 409.194 590.893ZM434.515 579.282L434.641 582.138C436.377 579.954 438.644 578.862 441.444 578.862C446.245 578.862 448.667 581.571 448.708 586.988V602H444.824V586.967C444.81 585.329 444.432 584.118 443.69 583.334C442.963 582.551 441.822 582.159 440.268 582.159C439.008 582.159 437.903 582.495 436.951 583.167C435.999 583.838 435.257 584.72 434.725 585.812V602H430.841V579.282H434.515ZM468.592 602C468.368 601.552 468.186 600.754 468.046 599.606C466.24 601.482 464.085 602.42 461.579 602.42C459.34 602.42 457.499 601.79 456.057 600.53C454.629 599.257 453.916 597.647 453.916 595.701C453.916 593.336 454.811 591.502 456.603 590.2C458.409 588.884 460.942 588.227 464.204 588.227H467.983V586.442C467.983 585.084 467.577 584.006 466.765 583.208C465.953 582.397 464.757 581.991 463.175 581.991C461.789 581.991 460.627 582.341 459.689 583.041C458.752 583.74 458.283 584.587 458.283 585.581H454.377C454.377 584.447 454.776 583.355 455.574 582.306C456.386 581.242 457.478 580.402 458.85 579.786C460.235 579.17 461.754 578.862 463.406 578.862C466.023 578.862 468.074 579.52 469.558 580.836C471.041 582.138 471.811 583.936 471.867 586.232V596.688C471.867 598.774 472.133 600.432 472.665 601.664V602H468.592ZM462.146 599.04C463.364 599.04 464.519 598.725 465.61 598.095C466.702 597.465 467.493 596.646 467.983 595.638V590.977H464.938C460.179 590.977 457.8 592.37 457.8 595.155C457.8 596.373 458.206 597.325 459.018 598.011C459.829 598.697 460.872 599.04 462.146 599.04ZM482.176 602H478.292V569.75H482.176V602ZM492.632 602H488.748V579.282H492.632V602ZM488.433 573.256C488.433 572.626 488.622 572.095 489 571.661C489.392 571.227 489.966 571.01 490.722 571.01C491.478 571.01 492.051 571.227 492.443 571.661C492.835 572.095 493.031 572.626 493.031 573.256C493.031 573.886 492.835 574.411 492.443 574.831C492.051 575.251 491.478 575.461 490.722 575.461C489.966 575.461 489.392 575.251 489 574.831C488.622 574.411 488.433 573.886 488.433 573.256ZM502.521 598.83H515.812V602H497.776V599.145L510.311 582.495H497.965V579.282H515.182V582.033L502.521 598.83ZM529.292 602.42C526.212 602.42 523.707 601.412 521.775 599.396C519.843 597.367 518.877 594.658 518.877 591.271V590.557C518.877 588.304 519.304 586.295 520.158 584.531C521.026 582.754 522.23 581.368 523.77 580.374C525.323 579.366 527.003 578.862 528.809 578.862C531.762 578.862 534.058 579.835 535.695 581.781C537.333 583.726 538.152 586.512 538.152 590.137V591.754H522.762C522.818 593.993 523.469 595.806 524.714 597.192C525.974 598.564 527.57 599.25 529.501 599.25C530.873 599.25 532.035 598.97 532.987 598.41C533.939 597.85 534.771 597.108 535.485 596.184L537.858 598.032C535.954 600.957 533.099 602.42 529.292 602.42ZM528.809 582.054C527.241 582.054 525.925 582.628 524.861 583.775C523.798 584.909 523.14 586.505 522.888 588.562H534.268V588.269C534.156 586.295 533.624 584.769 532.672 583.691C531.72 582.6 530.432 582.054 528.809 582.054ZM541.721 590.452C541.721 586.967 542.547 584.167 544.199 582.054C545.85 579.926 548.013 578.862 550.687 578.862C553.346 578.862 555.453 579.772 557.006 581.592V569.75H560.891V602H557.321L557.132 599.564C555.579 601.468 553.416 602.42 550.645 602.42C548.013 602.42 545.864 601.342 544.199 599.187C542.547 597.031 541.721 594.217 541.721 590.746V590.452ZM545.605 590.893C545.605 593.469 546.137 595.484 547.201 596.94C548.265 598.396 549.735 599.124 551.61 599.124C554.074 599.124 555.873 598.018 557.006 595.806V585.371C555.845 583.229 554.06 582.159 551.652 582.159C549.749 582.159 548.265 582.894 547.201 584.363C546.137 585.833 545.605 588.01 545.605 590.893ZM601.707 602H597.655V587.87H582.244V602H578.212V571.43H582.244V584.573H597.655V571.43H601.707V602ZM617.685 602.42C614.606 602.42 612.1 601.412 610.168 599.396C608.237 597.367 607.271 594.658 607.271 591.271V590.557C607.271 588.304 607.698 586.295 608.552 584.531C609.42 582.754 610.623 581.368 612.163 580.374C613.717 579.366 615.396 578.862 617.202 578.862C620.156 578.862 622.451 579.835 624.089 581.781C625.727 583.726 626.545 586.512 626.545 590.137V591.754H611.155C611.211 593.993 611.862 595.806 613.108 597.192C614.368 598.564 615.963 599.25 617.895 599.25C619.267 599.25 620.429 598.97 621.38 598.41C622.332 597.85 623.165 597.108 623.879 596.184L626.251 598.032C624.348 600.957 621.492 602.42 617.685 602.42ZM617.202 582.054C615.634 582.054 614.319 582.628 613.255 583.775C612.191 584.909 611.533 586.505 611.281 588.562H622.661V588.269C622.549 586.295 622.017 584.769 621.065 583.691C620.114 582.6 618.826 582.054 617.202 582.054ZM645.085 602C644.861 601.552 644.679 600.754 644.539 599.606C642.733 601.482 640.578 602.42 638.072 602.42C635.833 602.42 633.992 601.79 632.55 600.53C631.123 599.257 630.409 597.647 630.409 595.701C630.409 593.336 631.305 591.502 633.096 590.2C634.902 588.884 637.435 588.227 640.697 588.227H644.476V586.442C644.476 585.084 644.07 584.006 643.258 583.208C642.446 582.397 641.25 581.991 639.668 581.991C638.282 581.991 637.12 582.341 636.183 583.041C635.245 583.74 634.776 584.587 634.776 585.581H630.871C630.871 584.447 631.27 583.355 632.067 582.306C632.879 581.242 633.971 580.402 635.343 579.786C636.729 579.17 638.247 578.862 639.899 578.862C642.516 578.862 644.567 579.52 646.051 580.836C647.535 582.138 648.304 583.936 648.36 586.232V596.688C648.36 598.774 648.626 600.432 649.158 601.664V602H645.085ZM638.639 599.04C639.857 599.04 641.012 598.725 642.104 598.095C643.195 597.465 643.986 596.646 644.476 595.638V590.977H641.432C636.673 590.977 634.293 592.37 634.293 595.155C634.293 596.373 634.699 597.325 635.511 598.011C636.323 598.697 637.365 599.04 638.639 599.04ZM658.669 602H654.785V569.75H658.669V602ZM670.175 573.781V579.282H674.417V582.285H670.175V596.373C670.175 597.283 670.364 597.969 670.742 598.431C671.12 598.879 671.764 599.103 672.674 599.103C673.122 599.103 673.738 599.019 674.521 598.851V602C673.5 602.28 672.506 602.42 671.54 602.42C669.804 602.42 668.496 601.895 667.614 600.845C666.732 599.795 666.291 598.305 666.291 596.373V582.285H662.155V579.282H666.291V573.781H670.175ZM682.857 582.033C684.579 579.919 686.818 578.862 689.576 578.862C694.377 578.862 696.798 581.571 696.84 586.988V602H692.956V586.967C692.942 585.329 692.564 584.118 691.822 583.334C691.094 582.551 689.954 582.159 688.4 582.159C687.14 582.159 686.034 582.495 685.083 583.167C684.131 583.838 683.389 584.72 682.857 585.812V602H678.973V569.75H682.857V582.033ZM711.769 599.25C713.154 599.25 714.365 598.83 715.401 597.99C716.437 597.15 717.011 596.1 717.123 594.84H720.797C720.727 596.142 720.279 597.381 719.453 598.557C718.627 599.732 717.521 600.67 716.136 601.37C714.764 602.07 713.308 602.42 711.769 602.42C708.675 602.42 706.212 601.391 704.378 599.333C702.558 597.262 701.648 594.434 701.648 590.851V590.2C701.648 587.989 702.054 586.022 702.866 584.3C703.678 582.579 704.84 581.242 706.352 580.29C707.877 579.338 709.676 578.862 711.748 578.862C714.295 578.862 716.409 579.625 718.088 581.151C719.782 582.677 720.685 584.657 720.797 587.093H717.123C717.011 585.623 716.451 584.419 715.443 583.481C714.449 582.53 713.217 582.054 711.748 582.054C709.774 582.054 708.241 582.768 707.149 584.195C706.072 585.609 705.533 587.66 705.533 590.347V591.082C705.533 593.7 706.072 595.715 707.149 597.129C708.227 598.543 709.767 599.25 711.769 599.25ZM739.189 602C738.965 601.552 738.784 600.754 738.644 599.606C736.838 601.482 734.682 602.42 732.177 602.42C729.937 602.42 728.097 601.79 726.655 600.53C725.227 599.257 724.513 597.647 724.513 595.701C724.513 593.336 725.409 591.502 727.201 590.2C729.006 588.884 731.54 588.227 734.801 588.227H738.581V586.442C738.581 585.084 738.175 584.006 737.363 583.208C736.551 582.397 735.354 581.991 733.772 581.991C732.387 581.991 731.225 582.341 730.287 583.041C729.349 583.74 728.88 584.587 728.88 585.581H724.975C724.975 584.447 725.374 583.355 726.172 582.306C726.984 581.242 728.076 580.402 729.447 579.786C730.833 579.17 732.352 578.862 734.003 578.862C736.621 578.862 738.672 579.52 740.155 580.836C741.639 582.138 742.409 583.936 742.465 586.232V596.688C742.465 598.774 742.731 600.432 743.263 601.664V602H739.189ZM732.744 599.04C733.961 599.04 735.116 598.725 736.208 598.095C737.3 597.465 738.091 596.646 738.581 595.638V590.977H735.536C730.777 590.977 728.397 592.37 728.397 595.155C728.397 596.373 728.803 597.325 729.615 598.011C730.427 598.697 731.47 599.04 732.744 599.04ZM759.535 582.768C758.947 582.67 758.31 582.621 757.624 582.621C755.076 582.621 753.348 583.705 752.438 585.875V602H748.554V579.282H752.333L752.396 581.907C753.67 579.877 755.475 578.862 757.813 578.862C758.569 578.862 759.143 578.96 759.535 579.156V582.768ZM772.132 602.42C769.053 602.42 766.547 601.412 764.616 599.396C762.684 597.367 761.718 594.658 761.718 591.271V590.557C761.718 588.304 762.145 586.295 762.999 584.531C763.867 582.754 765.071 581.368 766.61 580.374C768.164 579.366 769.844 578.862 771.649 578.862C774.603 578.862 776.898 579.835 778.536 581.781C780.174 583.726 780.993 586.512 780.993 590.137V591.754H765.603C765.659 593.993 766.309 595.806 767.555 597.192C768.815 598.564 770.411 599.25 772.342 599.25C773.714 599.25 774.876 598.97 775.828 598.41C776.779 597.85 777.612 597.108 778.326 596.184L780.699 598.032C778.795 600.957 775.94 602.42 772.132 602.42ZM771.649 582.054C770.082 582.054 768.766 582.628 767.702 583.775C766.638 584.909 765.98 586.505 765.729 588.562H777.108V588.269C776.996 586.295 776.465 584.769 775.513 583.691C774.561 582.6 773.273 582.054 771.649 582.054Z" fill="#534D4D"/>
<defs>
<linearGradient id="paint0_linear" x1="1005" y1="0" x2="-96.9018" y2="623.84" gradientUnits="userSpaceOnUse">
<stop stop-color="#ECB004"/>
<stop offset="1" stop-color="white" stop-opacity="0"/>
</linearGradient>
</defs>
</svg>
